<svg width="40" height="40" viewBox="0 0 40 40" fill="none" xmlns="http://www.w3.org/2000/svg">
<path d="M14.166 20.8335L25.8327 20.8335" stroke="black" stroke-width="4" stroke-linecap="round"/>
<path d="M14.166 25.8335L20.8327 25.8335" stroke="black" stroke-width="4" stroke-linecap="round"/>
<path d="M9.16602 8.2335C9.16602 7.39342 9.16602 6.97338 9.32951 6.65251C9.47332 6.37027 9.70279 6.1408 9.98503 5.99699C10.3059 5.8335 10.7259 5.8335 11.566 5.8335H21.5052C21.8721 5.8335 22.0556 5.8335 22.2282 5.87494C22.3813 5.91169 22.5276 5.97229 22.6618 6.05454C22.8132 6.1473 22.9429 6.27701 23.2023 6.53644L30.1297 13.4639C30.3892 13.7233 30.5189 13.853 30.6116 14.0044C30.6939 14.1386 30.7545 14.2849 30.7912 14.438C30.8327 14.6106 30.8327 14.7941 30.8327 15.1609V31.7668C30.8327 32.6069 30.8327 33.0269 30.6692 33.3478C30.5254 33.6301 30.2959 33.8595 30.0137 34.0033C29.6928 34.1668 29.2728 34.1668 28.4327 34.1668H11.566C10.7259 34.1668 10.3059 34.1668 9.98503 34.0033C9.70279 33.8595 9.47332 33.6301 9.32951 33.3478C9.16602 33.0269 9.16602 32.6069 9.16602 31.7668V8.2335Z" stroke="black" stroke-width="4"/>
<path d="M20.834 5.8335V13.4335C20.834 14.2736 20.834 14.6936 20.9975 15.0145C21.1413 15.2967 21.3708 15.5262 21.653 15.67C21.9739 15.8335 22.3939 15.8335 23.234 15.8335H30.834" stroke="black" stroke-width="4"/>
</svg>
