<svg width="130" height="130" viewBox="0 0 130 130" fill="none" xmlns="http://www.w3.org/2000/svg">
<path d="M46.041 67.7083L83.9577 67.7083" stroke="#222222" stroke-width="4" stroke-linecap="round"/>
<path d="M46.041 83.9583L67.7077 83.9583" stroke="#222222" stroke-width="4" stroke-linecap="round"/>
<path d="M29.791 21.3583C29.791 20.5182 29.791 20.0981 29.9545 19.7773C30.0983 19.495 30.3278 19.2656 30.61 19.1217C30.9309 18.9583 31.3509 18.9583 32.191 18.9583H72.1302C72.4971 18.9583 72.6806 18.9583 72.8532 18.9997C73.0062 19.0364 73.1526 19.097 73.2868 19.1793C73.4382 19.2721 73.5679 19.4018 73.8273 19.6612L99.5047 45.3386C99.7642 45.5981 99.8939 45.7278 99.9866 45.8792C100.069 46.0134 100.129 46.1597 100.166 46.3127C100.208 46.4854 100.208 46.6688 100.208 47.0357V108.642C100.208 109.482 100.208 109.902 100.044 110.223C99.9004 110.505 99.6709 110.734 99.3887 110.878C99.0678 111.042 98.6478 111.042 97.8077 111.042H32.191C31.3509 111.042 30.9309 111.042 30.61 110.878C30.3278 110.734 30.0983 110.505 29.9545 110.223C29.791 109.902 29.791 109.482 29.791 108.642V21.3583Z" stroke="#222222" stroke-width="4"/>
<path d="M67.709 18.9583V49.0583C67.709 49.8983 67.709 50.3184 67.8725 50.6392C68.0163 50.9215 68.2458 51.151 68.528 51.2948C68.8489 51.4583 69.2689 51.4583 70.109 51.4583H100.209" stroke="#222222" stroke-width="4"/>
</svg>
