<svg width="130" height="130" viewBox="0 0 130 130" fill="none" xmlns="http://www.w3.org/2000/svg">
<circle cx="43.333" cy="43.3333" r="14.25" stroke="#222222" stroke-width="4" stroke-linecap="round"/>
<path d="M63.1293 45.6876C64.6598 43.0366 67.1807 41.1023 70.1375 40.31C73.0942 39.5178 76.2446 39.9325 78.8955 41.463C81.5464 42.9936 83.4808 45.5145 84.2731 48.4712C85.0653 51.4279 84.6506 54.5783 83.1201 57.2292C81.5895 59.8802 79.0686 61.8146 76.1119 62.6068C73.1551 63.3991 70.0048 62.9843 67.3538 61.4538C64.7029 59.9233 62.7685 57.4024 61.9763 54.4456C61.184 51.4889 61.5988 48.3385 63.1293 45.6876L63.1293 45.6876Z" stroke="#222222" stroke-width="4"/>
<path d="M73.0918 99.2255L71.0946 99.3318L73.0918 99.2255ZM72.1253 98.2083H14.542V102.208H72.1253V98.2083ZM15.5728 99.3318C15.7114 96.728 16.454 89.2152 20.2953 82.4143C24.0601 75.7486 30.8103 69.7083 43.3337 69.7083V65.7083C29.1658 65.7083 21.1815 72.7116 16.8124 80.4471C12.5197 88.0473 11.7289 96.2932 11.5784 99.1192L15.5728 99.3318ZM43.3337 69.7083C55.857 69.7083 62.6072 75.7486 66.3721 82.4143C70.2133 89.2152 70.956 96.728 71.0946 99.3318L75.0889 99.1192C74.9385 96.2932 74.1477 88.0473 69.8549 80.4471C65.4858 72.7116 57.5015 65.7083 43.3337 65.7083V69.7083ZM14.542 98.2083C15.0374 98.2083 15.6095 98.6424 15.5728 99.3318L11.5784 99.1192C11.483 100.912 12.942 102.208 14.542 102.208V98.2083ZM72.1253 102.208C73.7253 102.208 75.1844 100.912 75.0889 99.1192L71.0946 99.3318C71.0579 98.6424 71.63 98.2083 72.1253 98.2083V102.208Z" fill="#222222"/>
<path d="M52.5596 100.208V98.2083L52.551 102.208L52.5596 100.208ZM94.6496 99.1201L92.6712 99.413V99.413L94.6496 99.1201ZM63.9185 75.7292L62.8469 74.0405L60.7862 75.3482L62.4733 77.1117L63.9185 75.7292ZM73.0914 99.2256L71.0942 99.3319L73.0914 99.2256ZM52.5636 98.2083C52.5641 98.2083 52.5658 98.2083 52.5682 98.2083L52.551 102.208C52.556 102.208 52.5604 102.208 52.5636 102.208V98.2083ZM93.6868 98.2083H52.5636V102.208H93.6868V98.2083ZM92.6712 99.413C92.5689 98.7224 93.1268 98.2083 93.6868 98.2083V102.208C95.43 102.208 96.9035 100.688 96.628 98.8272L92.6712 99.413ZM73.1252 75.125C80.433 75.125 85.0804 79.6507 88.1029 85.1856C91.1381 90.7439 92.3091 96.9673 92.6712 99.413L96.628 98.8272C96.2419 96.2184 94.9859 89.4442 91.6135 83.2686C88.2284 77.0696 82.4878 71.125 73.1252 71.125V75.125ZM64.9901 77.4179C67.2126 76.0075 69.8793 75.125 73.1252 75.125V71.125C69.1026 71.125 65.6951 72.233 62.8469 74.0405L64.9901 77.4179ZM62.4733 77.1117C69.7306 84.6981 70.9134 95.9363 71.0942 99.3319L75.0885 99.1193C74.9002 95.5814 73.6849 83.0451 65.3637 74.3467L62.4733 77.1117ZM71.0942 99.3319C71.0575 98.6425 71.6295 98.2083 72.1249 98.2083V102.208C73.7249 102.208 75.184 100.912 75.0885 99.1193L71.0942 99.3319ZM72.1249 98.2083H52.5596V102.208H72.1249V98.2083Z" fill="#222222"/>
<rect x="88.5" y="40.5" width="21" height="3" rx="1.5" fill="#222222" stroke="#222222" stroke-linecap="round"/>
<rect x="100.5" y="31.5" width="21" height="3" rx="1.5" transform="rotate(90 100.5 31.5)" fill="#222222" stroke="#222222" stroke-linecap="round"/>
</svg>
