<svg width="120" height="120" viewBox="0 0 120 120" fill="none" xmlns="http://www.w3.org/2000/svg">
<g clip-path="url(#clip0_19_411)">
<path d="M56.8741 85.3233C51.4582 80.1684 46.0882 76.7591 40.5737 74.9745C36.9545 73.8032 33.6323 73.3095 29.3649 73.3088C26.1358 73.3083 23.0153 73.5928 19.5671 74.2023L18.6953 74.3564L18.7376 74.1689C18.7609 74.0657 20.7786 66.5033 23.2214 57.3636L27.6629 40.7458L30.8647 38.6725C32.6257 37.5322 34.6409 36.2496 35.3429 35.8223C41.6474 31.9851 45.6172 30.7008 48.2818 31.6365C48.8608 31.8398 49.1534 31.9986 49.6121 32.3583C50.3376 32.9273 51.0543 33.908 51.4098 34.8183C51.5032 35.0574 51.4477 35.0155 51.167 34.6352C49.4702 32.3362 46.9326 31.6681 43.5363 32.6261C42.6128 32.8867 41.5775 33.3067 40.1648 33.9938C37.9575 35.0676 35.6427 36.4767 31.0022 39.5712L28.4831 41.2512L24.6836 56.2391C22.5939 64.4825 20.8836 71.3125 20.8829 71.417C20.8814 71.6613 20.8617 71.6647 22.7159 71.1008C25.901 70.1323 28.9928 69.5008 32.2267 69.1584C33.8088 68.991 38.1565 68.9897 39.5516 69.1564C46.2793 69.96 50.9628 72.5022 53.9943 76.9959C54.5621 77.8375 55.3876 79.4223 55.7574 80.3804C55.9614 80.9091 56.0403 81.0437 56.1464 81.0437C56.2671 81.0437 56.8209 79.0965 56.8623 78.465C58.7162 77.1817 57.6871 82.2637 60.1268 81.101C60.1701 81.1431 60.581 80.9842 61.3026 80.6464C66.4544 78.2347 71.8026 76.9199 78.8673 76.3283C80.5815 76.1848 85.805 76.1275 87.8448 76.2299C90.4729 76.3618 92.9358 76.5951 95.2886 76.9348C96.7013 77.1388 96.6513 77.1395 96.6513 76.916C96.6513 76.6908 87.7313 41.4069 87.649 41.3063C87.6155 41.2654 87.2224 41.2133 86.7544 41.1876C84.9808 41.0904 83.5607 40.8132 81.6269 40.1867C80.0959 39.6907 78.82 39.1708 76.0055 37.8959C72.4501 36.2856 71.0979 35.7708 69.5323 35.4319C68.5455 35.2183 66.7529 35.2163 66.0242 35.4281C65.7624 35.5041 65.5355 35.554 65.52 35.5389C65.4709 35.4911 66.3473 35.1207 66.7728 35.0094C67.4269 34.8384 68.4951 34.8112 69.362 34.9434C70.8664 35.173 72.3948 35.719 76.1077 37.3531C81.5154 39.7332 84.158 40.527 87.4605 40.7632L88.5245 40.8393L89.3905 44.0941C89.8668 45.8842 91.8812 53.4975 93.867 61.0125C95.8528 68.5275 97.7822 75.8171 98.1546 77.2116C98.527 78.606 98.8317 79.7749 98.8317 79.809C98.8317 79.892 98.3255 79.925 94.0961 80.1181C90.0877 80.3011 88.1319 80.4176 85.7492 80.6153C76.9281 81.3473 69.1409 82.911 60.6403 85.6572C59.2912 86.093 58.1567 86.4483 58.1192 86.4466C58.0817 86.4449 57.5215 85.9395 56.8741 85.3233Z" fill="#B82236"/>
<path d="M56.6931 78.7377C56.4918 78.195 56.8681 76.6471 57.3035 75.9987C57.6886 75.4254 58.05 74.5308 58.174 73.8439C58.2033 73.6814 58.4329 73.1707 58.6842 72.709C59.191 71.7777 59.2872 70.7943 58.8715 70.7943C58.7233 70.7943 58.6021 70.5582 58.6021 70.2697C58.6021 69.8158 58.7817 69.7451 59.9341 69.7451C60.9095 69.7451 61.3604 69.6181 61.6182 69.2708C61.8119 69.01 62.5354 68.4215 63.226 67.963C64.1949 67.3197 64.4492 67.0086 64.3396 66.6006C64.1915 66.0491 64.8463 65.0667 66.5706 63.2533C67.0851 62.7122 67.812 61.6203 68.1859 60.8268C68.5598 60.0334 69.0496 59.0586 69.2744 58.6607C69.4991 58.2627 69.6582 57.7316 69.628 57.4803C69.544 56.7821 69.9602 54.8003 70.2242 54.6414C70.6239 54.401 70.4829 53.0416 69.9013 51.5284C69.5949 50.7314 69.4259 49.9507 69.5257 49.7935C69.6255 49.6363 69.4443 49.2693 69.1231 48.978C68.3511 48.2779 68.0331 47.4061 68.0331 45.9897C68.0331 44.6694 67.5033 44.4415 66.4195 45.2958C65.1784 46.2741 65.8084 51.6192 67.1433 51.437C67.4582 51.394 67.7944 51.4826 67.8904 51.6337C67.9947 51.798 67.7874 51.9086 67.3754 51.9086C66.7717 51.9086 66.6858 52.0189 66.6858 52.7945C66.6858 53.2818 66.4984 53.8319 66.2694 54.0169C66.0403 54.2019 65.9178 54.5179 65.9971 54.719C66.1382 55.0769 64.9412 57.6792 64.6355 57.6792C64.5502 57.6792 64.1897 57.4566 63.8344 57.1845C63.1609 56.6688 63.2808 56.3866 64.3281 56.0232C65.0039 55.7887 64.312 51.5147 63.4245 50.4418C63.2942 50.2843 63.2673 50.0777 63.3649 49.9828C63.4624 49.8878 63.2491 49.8011 62.891 49.7901C62.5328 49.7791 61.9973 49.7105 61.7009 49.6377C61.0622 49.481 59.399 49.3463 56.9853 49.256C54.7988 49.1742 52.433 48.1794 52.9587 47.5628C53.1623 47.3239 53.3973 47.2691 53.5855 47.4166C54.0014 47.7424 55.9504 48.032 58.1979 48.1019C59.2353 48.1342 60.5085 48.2435 61.0272 48.3448C61.5459 48.4462 62.1522 48.5562 62.3745 48.5893C63.6746 48.7828 64.5571 49.4509 64.8535 50.4659C65.022 51.043 65.2762 51.6332 65.4184 51.7774C65.8378 52.203 65.3794 49.8525 64.9058 49.1488C64.6747 48.8054 64.5346 48.3121 64.5946 48.0525C65.0739 45.9786 63.4626 45.1745 59.9902 45.7546C56.4903 46.3393 53.5367 46.3817 53.1924 45.8523C52.7179 45.1226 52.9093 44.762 53.7104 44.8765C54.6029 45.004 54.6765 44.0696 53.8684 42.869C53.3601 42.1139 53.5814 41.5908 54.3135 41.817C54.5974 41.9047 54.8392 41.88 54.8509 41.7621C55.0464 39.7876 54.9757 39.1979 54.4865 38.7217C53.9326 38.1826 54.3416 37.5319 54.9554 37.9757C55.4886 38.3613 57.5515 38.8205 58.0535 38.6653C58.3316 38.5794 58.8412 38.4563 59.186 38.3916C59.5308 38.327 59.8537 38.1549 59.9036 38.0092C60.0928 37.4566 60.5053 37.7853 61.0575 38.9287C62.0373 40.9578 64.7852 42.0379 65.0136 40.4837C65.1326 39.674 63.7475 38.2894 63.4085 38.8791C62.9406 39.693 62.3517 39.4037 62.4215 38.3944C62.5569 36.4371 60.5054 35.5395 56.8506 35.957C55.9614 36.0586 54.7812 36.0261 54.2279 35.8849C52.4477 35.4304 51.1687 36.8553 51.5115 38.9114C51.5954 39.4152 51.5187 40.3898 51.3409 41.0772C51.1631 41.7645 50.9571 43.45 50.8833 44.8226C50.8094 46.1953 50.5456 48.0265 50.2969 48.8921C49.9457 50.1145 49.8413 51.6374 49.8293 55.7119C49.8209 58.5973 49.7273 61.7382 49.6215 62.6917C49.4664 64.0879 49.5088 64.4899 49.8389 64.7567C50.3405 65.1619 50.3772 65.8105 49.8986 65.8105C49.706 65.8105 49.3983 65.6645 49.215 65.486C48.8524 65.1331 46.9586 66.8147 46.8412 67.5939C46.6569 68.8157 42.4204 73.831 41.7758 73.5903C41.2373 73.3891 41.4453 72.9425 42.8272 71.3324C43.3523 70.7206 43.7819 70.1173 43.7819 69.9917C43.7819 69.8661 44.1232 69.3756 44.5403 68.9017C44.9575 68.4278 45.6702 67.442 46.1243 66.711C46.5783 65.98 47.2475 65.0692 47.6113 64.6871C47.9752 64.3049 48.29 63.8406 48.311 63.6554C48.7603 59.6812 48.8516 58.5095 48.7458 58.0727C48.5243 57.1582 48.4204 50.4774 48.6235 50.2036C48.9064 49.8222 49.4487 47.669 49.4163 47.056C49.3562 45.9213 49.6665 42.8039 49.9383 41.81C50.0962 41.2329 50.1926 40.0526 50.1526 39.187C49.9992 35.8621 51.0611 34.8209 54.6747 34.7532C57.7542 34.6955 57.7931 34.6659 57.8189 32.3517C57.8301 31.3503 58.0669 29.1736 58.3451 27.5146C58.6234 25.8555 58.8775 23.8743 58.9099 23.1119C59.0083 20.7931 60.4275 19.8915 61.7773 21.2901C62.5634 22.1046 63.1984 24.8446 62.8984 26.128C62.7707 26.6742 62.647 28.8917 62.6234 31.0556C62.5967 33.5009 62.4721 35.0567 62.2943 35.1659C61.9972 35.3484 62.6308 36.2738 64.2394 38.0066C66.2351 40.1565 66.3432 41.4973 64.5434 41.7775C63.1847 41.989 61.537 41.3768 60.6249 40.3216C59.1296 38.5918 58.2545 39.3009 58.21 42.2783C58.1715 44.845 58.1715 44.845 58.8584 44.7186C59.2361 44.6491 60.0605 44.5165 60.6904 44.424C61.8356 44.2557 61.8356 44.2557 61.8356 43.0792C61.8356 42.0976 61.9855 41.4215 62.3789 41.5003C62.7471 41.5741 62.7678 42.3307 62.7292 43.1822C62.6826 44.2074 62.7349 44.2904 63.6049 44.5699C64.1138 44.7334 64.5302 44.976 64.5302 45.1091C64.5302 45.5966 65.2573 45.3331 65.5921 44.7243C66.3452 43.3544 69.1811 43.1301 68.7959 44.471C68.6847 44.8582 69.1243 47.4745 69.3773 47.9314C71.8364 52.3712 72.0536 54.4129 70.4285 57.8104C70.2905 58.0989 70.1321 58.5715 70.0767 58.8606C69.7394 60.618 69.2544 61.7192 68.4879 62.4681C68.009 62.9359 67.3351 63.7644 66.9904 64.3093C66.6456 64.8541 66.216 65.4443 66.0355 65.6208C65.8551 65.7973 65.3766 66.4922 64.9721 67.1649C64.1536 68.5266 62.2242 70.3766 61.3365 70.6508C61.0138 70.7505 60.681 71.1398 60.5822 71.5331C60.4849 71.9202 60.333 72.2959 60.2447 72.3681C60.0859 72.4978 58.8925 75.1401 58.7639 75.6468C58.7273 75.7911 58.4941 76.3662 58.2455 76.9248C57.997 77.4834 57.8317 79.3624 57.8317 79.4736C57.8317 79.8325 56.817 79.0719 56.6931 78.7377ZM57.0313 44.1051C57.2182 40.1008 57.2004 39.8427 56.7373 39.8427C56.3812 39.8427 56.2112 40.2777 55.9429 41.8756C55.7551 42.9936 55.5468 44.174 55.4799 44.4986C55.3753 45.0064 55.4718 45.0888 56.1718 45.0888C56.9241 45.0888 56.9888 45.0147 57.0313 44.1051ZM61.7009 28.6912C61.7009 21.9512 61.6238 21.524 60.4186 21.5831C59.8987 21.6087 59.8146 21.7588 59.8146 22.662C59.8146 23.5157 59.9025 23.6968 60.2862 23.6341C60.9266 23.5295 60.8893 24.215 60.2056 25.1152C59.902 25.515 59.603 26.2307 59.5412 26.7057C59.4795 27.1806 59.3592 27.7831 59.274 28.0444C59.1888 28.3058 59.2512 28.5991 59.4126 28.6962C59.5997 28.8087 59.6141 28.9832 59.4524 29.1773C59.3129 29.3448 59.1152 30.5415 59.0131 31.8366C58.9111 33.1318 58.7697 34.2826 58.6989 34.3941C58.6282 34.5055 59.0553 34.5967 59.6481 34.5967C60.2409 34.5967 60.7884 34.6951 60.8647 34.8153C61.5553 35.903 61.7009 34.8369 61.7009 28.6912ZM55.6381 68.3024C55.6381 68.0817 55.8786 67.909 56.1859 67.909C56.4873 67.909 57.3213 67.6192 58.0393 67.265C59.4224 66.5827 59.699 66.6009 59.4949 67.3607C59.2213 68.379 55.6381 69.2539 55.6381 68.3024ZM58.4845 62.2039C58.5737 61.8072 58.7455 61.175 58.8663 60.799C59.1713 59.8498 58.5798 56.8923 58.085 56.8923C57.278 56.8923 56.6729 55.2428 57.1582 54.3657C57.6564 53.4652 57.6563 53.4652 56.7819 52.799C56.301 52.4326 55.9075 51.9607 55.9075 51.7502C55.9075 51.106 56.6611 51.0417 57.4179 51.6212C58.2525 52.2602 61.1021 52.4157 61.4829 51.843C61.6173 51.6408 61.7837 52.0682 61.9169 52.9578C62.2254 55.0181 62.2158 55.8243 61.8673 57.0968C61.3073 59.1414 62.0171 60.1484 63.1695 58.9442C63.8973 58.1838 64.0949 58.4455 63.5685 59.4727C62.2225 62.0991 60.2484 59.0527 61.1617 55.7586C61.5088 54.5067 60.3234 52.9962 59.2953 53.3802C59.0622 53.4673 58.8715 53.7029 58.8715 53.9039C58.8715 54.1049 58.7633 54.2693 58.6309 54.2693C58.0009 54.2693 58.1222 55.1722 58.8711 56.0566C59.3159 56.582 59.6799 57.2126 59.6799 57.4579C59.6799 57.7033 59.8315 58.06 60.0167 58.2506C60.202 58.4413 60.3752 59.0104 60.4016 59.5153C60.4281 60.0202 60.5347 60.8298 60.6386 61.3143C60.8145 62.1348 60.7868 62.1827 60.2348 62.0121C59.773 61.8694 59.6096 61.95 59.4949 62.3771C59.255 63.2701 58.2823 63.1033 58.4845 62.2039Z" fill="#B82236"/>
<path d="M60.8456 34.7299C60.6967 34.6362 60.2272 34.5584 59.8023 34.5569C59.2965 34.5552 58.9951 34.4664 58.9295 34.3C58.8744 34.1602 58.9719 33.0337 59.1462 31.7968C59.3206 30.5598 59.4501 29.1524 59.4341 28.6694C59.3938 27.4559 59.7109 26.1991 60.3258 25.1346C60.9659 24.0267 60.9781 23.7019 60.3854 23.5571C59.9642 23.4542 59.9299 23.3759 59.9794 22.6315C60.0284 21.8957 60.0796 21.8132 60.5177 21.7639C61.412 21.6633 61.4715 22.0151 61.5371 27.791C61.5943 32.8198 61.5067 34.9087 61.2386 34.9029C61.1713 34.9014 60.9945 34.8235 60.8456 34.7299Z" fill="#F5D999"/>
<path d="M58.4552 44.7438C58.2258 44.674 58.1867 44.3849 58.2052 42.8956C58.2141 42.1747 58.2227 41.8685 58.2417 41.5953C58.3322 40.2921 58.6228 39.5582 59.1026 39.4206C59.1913 39.3952 59.335 39.395 59.4348 39.4199C59.7737 39.5056 60.1227 39.7687 60.5949 40.2946C60.8925 40.626 61.1455 40.845 61.4775 41.0585C61.7247 41.2175 61.9693 41.3466 62.2169 41.4488C62.2586 41.466 62.2956 41.4827 62.2991 41.4859C62.3026 41.4892 62.2891 41.494 62.2691 41.4967C62.1091 41.518 61.9803 41.7254 61.9109 42.073C61.8578 42.3389 61.8436 42.5226 61.8345 43.0584C61.8253 43.5983 61.8214 43.699 61.8061 43.8058C61.782 43.9726 61.739 44.0764 61.6641 44.1483C61.6134 44.1969 61.6013 44.2052 61.5331 44.2379C61.3875 44.3078 61.2852 44.3281 60.3587 44.4708C59.6609 44.5783 59.2786 44.6401 58.8952 44.7072C58.5979 44.7593 58.5263 44.7652 58.4552 44.7435V44.7438Z" fill="#F5D999"/>
<path d="M51.3247 117.991C47.6434 117.934 47.1355 117.906 46.8885 117.749C46.7352 117.651 46.6095 117.513 46.6095 117.442C46.6095 117.371 46.3255 116.904 45.9782 116.404C45.1286 115.181 45.0689 114.983 45.0689 113.388C45.0689 111.794 45.1283 111.596 45.9782 110.373C46.3255 109.873 46.6095 109.406 46.6095 109.335C46.6095 109.264 46.7307 109.128 46.8788 109.034C47.1184 108.881 47.8572 108.853 53.5924 108.78C60.0497 108.698 72.6348 108.805 72.9924 108.945C73.0972 108.986 73.2822 109.212 73.4038 109.446C73.5252 109.681 73.8359 110.163 74.094 110.517C74.8192 111.513 74.9121 111.839 74.9121 113.388C74.9121 114.968 74.844 115.191 73.9835 116.42C73.655 116.89 73.3863 117.341 73.3863 117.422C73.3863 117.504 73.2659 117.648 73.1188 117.742C72.6645 118.031 61.8468 118.155 51.3247 117.991ZM72.1782 116.984C72.4428 116.92 72.6427 116.713 73.1543 115.973C73.9249 114.859 74.0654 114.383 74.0015 113.104C73.9487 112.044 73.8418 111.754 73.15 110.792C72.9001 110.444 72.6447 110.075 72.5825 109.972C72.4778 109.798 72.1645 109.777 68.4384 109.691C64.2002 109.593 48.5323 109.677 47.8709 109.801C47.5382 109.863 47.4057 109.986 46.9051 110.7C46.1128 111.83 46.0858 111.889 45.9784 112.722C45.8634 113.612 45.9966 114.647 46.2943 115.177C46.497 115.537 47.3718 116.801 47.5167 116.942C47.6567 117.079 52.8693 117.135 62.1763 117.1C67.4944 117.081 71.9952 117.028 72.1782 116.984ZM40.3935 111.68C40.2766 111.629 39.4877 111.325 38.6403 111.003C27.6831 106.846 18.1059 99.2808 11.4888 89.556C6.21076 81.799 3.13704 73.3143 2.12474 63.7072C1.90146 61.588 1.86771 55.7417 2.06696 53.7296C2.77963 46.5373 4.39345 40.6323 7.32297 34.4981C13.0203 22.5685 23.1948 12.6773 35.4525 7.15184C41.7358 4.31953 47.7988 2.75438 55.1632 2.06343C57.231 1.86948 63.239 1.90241 65.4169 2.11974C72.8457 2.8609 78.9872 4.54399 85.4464 7.60885C102.998 15.937 115.027 32.164 117.579 50.9547C118.259 55.9645 118.223 61.6265 117.48 66.6365C115.033 83.1305 105.1 97.765 90.3341 106.63C86.6508 108.842 79.6886 111.946 78.8641 111.745C78.4546 111.645 77.8384 111.063 77.5936 110.545C77.3986 110.133 77.3695 109.84 77.3374 107.96C77.3171 106.795 77.2692 105.808 77.2296 105.768C77.1905 105.729 76.967 105.737 76.7333 105.787C75.2008 106.117 69.3128 106.811 65.6922 107.088C62.5786 107.327 55.8108 107.249 52.613 106.938C49.6423 106.649 46.3725 106.246 44.492 105.937C43.6488 105.799 42.9011 105.686 42.8305 105.686C42.7358 105.686 42.6889 106.25 42.652 107.831C42.5992 110.088 42.5374 110.428 42.0666 111.045C41.5861 111.674 40.9438 111.918 40.3935 111.68ZM41.5102 110.982C42.0488 110.458 42.244 109.836 42.0159 109.371C41.6829 108.691 39.8793 108.004 35.8733 107.032C34.6776 106.741 33.5018 106.432 33.2603 106.344C32.3377 106.008 31.6353 105.159 31.6297 104.374C31.6297 104.192 31.7461 103.681 31.8912 103.236C32.1971 102.3 33.0446 97.865 33.2214 96.2766C33.288 95.6795 33.3897 94.9183 33.4479 94.585C33.548 94.0112 33.5405 93.9701 33.3076 93.8121C32.6077 93.3369 30.3658 91.5172 29.304 90.5625C25.4501 87.0968 22.0243 82.6493 19.6416 78.0183C17.4039 73.6694 15.9661 69.0678 15.2512 63.9675C14.9718 61.9739 14.8592 57.0433 15.0437 54.8866C16.45 38.4539 27.0163 24.2976 42.6386 17.9162C46.8631 16.1907 51.6052 15.0753 56.3522 14.6906C58.5686 14.511 63.6359 14.6208 65.6846 14.8925C77.649 16.4804 87.8409 22.0836 95.3359 31.1937C98.5613 35.1143 101.084 39.673 102.771 44.6308C103.793 47.6332 104.39 50.2353 104.801 53.4711C105.073 55.6206 105.075 61.1736 104.801 63.2926C103.686 72.0039 100.556 79.2804 95.0159 86.0405C93.5748 87.799 90.0569 91.2021 88.1753 92.658C87.198 93.4141 86.6772 93.8832 86.7133 93.9746C86.7949 94.1815 86.9575 95.2799 87.0387 96.1731C87.1456 97.3474 88.1343 102.53 88.3566 103.082C88.8049 104.194 88.7228 104.989 88.094 105.619C87.5897 106.124 87.0034 106.351 84.8396 106.878C80.2787 107.989 78.516 108.647 78.1799 109.365C77.888 109.988 78.1494 110.844 78.748 111.226C79.0135 111.395 79.0588 111.388 80.1078 111.011C93.6492 106.146 105.064 96.1544 111.586 83.4557C117.33 72.2748 119.052 59.6485 116.517 47.3191C114.624 38.1158 110.424 29.6665 104.029 22.1941C102.59 20.5129 99.1509 17.1533 97.397 15.7151C82.8527 3.78803 63.9842 -0.454687 45.597 4.06762C41.7971 5.00224 38.3498 6.25475 34.5464 8.08236C28.4813 10.9969 24.062 14.0845 19.2399 18.7767C15.5011 22.4148 12.9561 25.5853 10.272 29.9488C9.24663 31.6157 7.13257 35.8015 6.38153 37.6517C2.62846 46.8979 1.45618 56.8221 2.94319 66.7573C4.12341 74.642 7.21895 82.496 11.8066 89.2458C16.2197 95.7385 21.5392 100.915 28.2241 105.22C31.9739 107.636 35.5918 109.448 39.5936 110.916C40.2657 111.163 40.8809 111.366 40.9609 111.368C41.0408 111.368 41.2866 111.197 41.5072 110.982H41.5102ZM67.5952 106.525C74.2737 105.855 77.7445 105.295 80.188 104.494C82.4428 103.754 85.2585 103.112 87.0191 102.936C87.5229 102.886 87.731 102.823 87.731 102.721C87.731 102.641 87.5142 101.429 87.2494 100.027C86.9845 98.6245 86.6968 96.8465 86.6099 96.0756C86.523 95.3047 86.382 94.437 86.2964 94.1475C85.8738 92.7163 84.9504 92.4798 82.0974 93.0718C78.373 93.8445 72.2034 94.4929 64.939 94.8751C63.3026 94.9612 61.5812 95.0527 61.1136 95.0786C60.1915 95.1293 57.4802 95.0216 53.4632 94.7737C46.843 94.3651 42.1804 93.8507 38.4687 93.1194C35.7907 92.5919 34.9378 92.6494 34.3641 93.3964C33.991 93.8823 33.8871 94.2681 33.6995 95.8631C33.5378 97.2385 33.2309 99.0647 32.7528 101.498C32.6186 102.18 32.5286 102.774 32.5526 102.816C32.5765 102.859 32.726 102.894 32.8848 102.894C33.9953 102.894 38.0622 103.803 40.2341 104.537C42.1713 105.192 45.6209 105.78 50.6283 106.309C54.9709 106.768 55.8459 106.809 60.6887 106.779C64.5686 106.755 65.7434 106.711 67.5952 106.525ZM64.0357 94.5162C71.832 94.1253 78.2109 93.4555 82.2718 92.6011C83.6554 92.3101 84.8956 92.2721 85.4646 92.5034C85.6752 92.5891 86.0031 92.8195 86.1931 93.0155C86.5385 93.3719 86.5386 93.3718 87.9583 92.2655C89.7927 90.8361 92.1421 88.6046 94.0948 86.4369C95.6448 84.7164 96.1917 84.0467 96.4452 83.559C96.5191 83.4168 96.7649 83.0447 96.9915 82.7319C98.8819 80.1229 100.009 78.0488 101.601 74.2535C102.352 72.462 103.404 68.8619 103.875 66.4654C104.432 63.6385 104.563 62.0991 104.563 58.4341C104.562 55.7927 104.519 54.6389 104.382 53.5745C104.14 51.7042 103.721 49.4891 103.341 48.0695C103.169 47.4293 102.984 46.7195 102.929 46.492C102.404 44.3091 100.584 40.0451 99.0018 37.2898C92.9747 26.7931 82.6637 19.1143 70.763 16.26C67.0983 15.3811 63.8866 15.0077 60.0074 15.0093C56.3904 15.0093 53.9684 15.2501 50.6564 15.9333C39.9524 18.1411 30.3422 24.2298 23.8324 32.9277C21.1848 36.4652 18.7207 41.1944 17.4383 45.1995C15.9723 49.7783 15.3733 53.6155 15.3711 58.4433C15.3711 62.1245 15.7319 65.1627 16.5893 68.6564C17.055 70.5541 18.14 73.8182 18.7075 75.029C18.7875 75.1995 18.8853 75.4438 18.925 75.5718C18.9649 75.6997 19.0366 75.8044 19.0848 75.8044C19.1325 75.8044 19.2041 75.9324 19.2429 76.0887C19.3412 76.4834 20.2446 78.3746 20.5143 78.7499C20.6363 78.9197 20.8122 79.2225 20.9053 79.4227C21.2908 80.2521 23.7525 83.9668 24.6051 85.0059C26.9077 87.8122 30.2934 91.0466 33.0431 93.0667C33.6579 93.5184 33.6579 93.5184 33.9898 93.1266C34.6988 92.2897 35.8446 92.1432 38.0509 92.6073C41.6239 93.3591 46.7814 93.9432 53.5694 94.3648C59.5385 94.7357 59.6339 94.7368 64.0357 94.5162Z" fill="black"/>
<path d="M55.134 115.842H52.3415C52.3415 115.726 52.3487 115.623 52.3632 115.535C52.3777 115.442 52.4065 115.326 52.4493 115.187C52.497 115.043 52.5805 114.894 52.6998 114.741C52.8239 114.583 52.9791 114.428 53.1652 114.274L53.8526 113.703C54.3108 113.327 54.5399 112.876 54.5399 112.351C54.5399 111.989 54.4493 111.71 54.2678 111.515C54.0865 111.315 53.8287 111.216 53.4946 111.216C53.2607 111.216 53.0482 111.292 52.8573 111.445C52.6711 111.594 52.5781 111.761 52.5781 111.947C52.5781 112.147 52.6759 112.263 52.8716 112.295C53.0243 112.318 53.1366 112.37 53.2082 112.449C53.2846 112.523 53.3227 112.614 53.3227 112.72C53.3227 112.809 53.2893 112.883 53.2225 112.943C53.1604 113.004 53.0722 113.034 52.9576 113.034C52.7619 113.034 52.5995 112.96 52.4706 112.811C52.3418 112.658 52.2773 112.458 52.2773 112.212C52.2773 111.854 52.411 111.557 52.6783 111.32C52.9503 111.083 53.2892 110.965 53.695 110.965C54.1628 110.965 54.547 111.09 54.8477 111.341C55.1484 111.587 55.2989 111.924 55.2989 112.351C55.2989 112.504 55.2655 112.653 55.1987 112.797C55.1318 112.941 55.0339 113.078 54.905 113.208C54.7761 113.338 54.6616 113.445 54.5613 113.529C54.4611 113.608 54.3347 113.701 54.182 113.807L53.4803 114.337C53.065 114.62 52.8573 114.876 52.8573 115.103C52.8573 115.215 52.9314 115.271 53.0794 115.271H54.4325C54.6234 115.271 54.7571 115.231 54.8334 115.152C54.9146 115.068 54.9695 114.952 54.9981 114.804L55.0769 114.393H55.2345L55.134 115.842Z" stroke="#0F244D"/>
<path d="M57.9776 115.73C58.1447 115.73 58.2901 115.679 58.4142 115.577C58.5431 115.47 58.6386 115.345 58.7006 115.201C58.7674 115.052 58.82 114.866 58.8582 114.643C58.8963 114.42 58.9201 114.223 58.9298 114.051C58.9394 113.879 58.9443 113.684 58.9443 113.466C58.9443 113.243 58.9394 113.046 58.9298 112.874C58.9201 112.702 58.8963 112.505 58.8582 112.282C58.8201 112.059 58.7675 111.875 58.7006 111.731C58.6386 111.583 58.5431 111.457 58.4142 111.355C58.2901 111.248 58.1447 111.195 57.9776 111.195C57.8105 111.195 57.6624 111.248 57.5335 111.355C57.4094 111.457 57.3141 111.583 57.2473 111.731C57.1852 111.875 57.1351 112.059 57.0969 112.282C57.0588 112.505 57.0348 112.702 57.0252 112.874C57.0155 113.046 57.0107 113.243 57.0107 113.466C57.0107 113.684 57.0155 113.879 57.0252 114.051C57.0348 114.223 57.0588 114.42 57.0969 114.643C57.135 114.866 57.1851 115.052 57.2473 115.201C57.3141 115.345 57.4094 115.47 57.5335 115.577C57.6624 115.679 57.8105 115.73 57.9776 115.73ZM57.9776 115.953C57.6434 115.953 57.3402 115.832 57.0681 115.591C56.8008 115.345 56.598 115.034 56.4596 114.657C56.3211 114.281 56.252 113.882 56.252 113.459C56.252 113.036 56.3211 112.637 56.4596 112.261C56.598 111.884 56.8008 111.576 57.0681 111.334C57.3402 111.088 57.6434 110.965 57.9776 110.965C58.3117 110.965 58.6123 111.088 58.8796 111.334C59.1517 111.576 59.357 111.884 59.4954 112.261C59.6338 112.637 59.703 113.036 59.703 113.459C59.703 113.882 59.6338 114.281 59.4954 114.657C59.357 115.034 59.1517 115.345 58.8796 115.591C58.6123 115.832 58.3117 115.953 57.9776 115.953Z" stroke="#0F244D"/>
<path d="M60.9141 115.842V115.619H61.6014C61.7351 115.619 61.8018 115.558 61.8018 115.438V112.017H60.9141V111.766H61.3077C61.5655 111.766 61.7732 111.699 61.9308 111.564C62.093 111.429 62.1933 111.267 62.2315 111.076H62.4605V115.438C62.4605 115.558 62.5274 115.619 62.6611 115.619H63.3484V115.842H60.9141Z" stroke="#0F244D"/>
<path d="M64.9525 111.076H67.7019C67.7019 111.318 67.6636 111.594 67.5872 111.905C67.5156 112.217 67.3915 112.5 67.2149 112.755L66.8069 113.355C66.6112 113.721 66.5132 114.023 66.5132 114.26C66.5132 114.46 66.5275 114.634 66.556 114.783L66.5987 115.027C66.6369 115.212 66.6558 115.375 66.6558 115.514C66.6558 115.807 66.515 115.953 66.2333 115.953C66.0615 115.953 65.9231 115.893 65.8181 115.772C65.7178 115.651 65.6677 115.489 65.6677 115.284C65.6677 115.14 65.6965 114.978 65.7538 114.797C65.8158 114.616 65.873 114.476 65.9255 114.379C65.978 114.276 66.0688 114.116 66.1976 113.898C66.3265 113.68 66.4005 113.554 66.4196 113.522L66.9924 112.72C67.2359 112.381 67.3575 112.084 67.3575 111.829C67.3575 111.708 67.2835 111.648 67.1355 111.648H65.6534C65.4624 111.648 65.3265 111.689 65.2454 111.773C65.169 111.852 65.1165 111.966 65.0878 112.114L65.009 112.525H64.8516L64.9525 111.076Z" stroke="#0F244D"/>
<path d="M44.2511 96.4121L44.2207 96.7029C44.6567 96.7801 44.7145 97.0796 44.6766 97.4473L44.2615 101.468C44.2239 101.835 44.1055 102.118 43.6625 102.109L43.6328 102.4L48.8102 102.906C49.0915 102.933 49.6313 103.038 49.5642 103.688C49.5396 103.928 49.3256 104.278 48.8333 104.23C48.1917 104.167 47.4439 103.671 46.4068 103.31C46.0728 103.191 45.7009 103.094 45.4021 103.065C44.5318 102.98 43.9998 103.317 43.9521 103.779C43.921 104.078 44.0724 104.248 44.2657 104.267C44.4415 104.284 44.5866 104.169 44.6043 103.998C44.6202 103.844 44.521 103.687 44.3276 103.669C44.3102 103.669 44.2833 103.662 44.2652 103.669C44.3453 103.409 44.7058 103.444 44.8289 103.456C45.5936 103.531 46.163 103.949 47.0332 104.293C47.0672 104.305 47.7671 104.581 48.3473 104.638C49.4109 104.742 49.819 104.142 49.864 103.706C49.9096 103.261 49.7044 103.017 49.5129 102.808C49.2343 102.496 49.2872 102.328 49.3067 102.14L49.7403 97.9399C49.7794 97.5635 49.913 97.3001 50.3305 97.2978L50.3609 97.0069L48.5676 96.8316L48.5372 97.1225C48.9433 97.2313 49.0233 97.4897 48.9844 97.866L48.502 102.536L44.9508 102.189L45.433 97.5188C45.454 97.3135 45.523 96.9055 46.0232 96.8767L46.0528 96.5858L44.2511 96.4121Z" stroke="#0F244D" stroke-width="2.07548"/>
<path d="M54.9086 97.2833L53.1092 97.1885L53.0933 97.4804C53.5148 97.5368 53.5959 97.8254 53.5749 98.2031L53.3505 102.238C53.3295 102.615 53.2168 102.893 52.7915 102.905L52.7754 103.197L54.575 103.292L54.5909 103C54.1694 102.944 54.0883 102.655 54.1093 102.278L54.2153 100.372L57.7704 100.559L57.6644 102.465C57.6398 102.903 57.4957 103.11 57.1052 103.133L57.0886 103.424L58.897 103.52L58.9129 103.228C58.5443 103.174 58.3991 102.925 58.4224 102.505L58.6468 98.4702C58.6606 98.2212 58.7272 97.8202 59.2147 97.8028L59.2314 97.5109L57.4229 97.4157L57.407 97.7076C57.7927 97.7709 57.9132 97.9925 57.8888 98.4303L57.789 100.224L54.2338 100.037L54.3337 98.2431C54.3568 97.8225 54.5026 97.589 54.8927 97.5751L54.9086 97.2833Z" stroke="#0F244D" stroke-width="2.07548"/>
<path d="M61.4863 97.4925L61.5036 97.7843C61.9207 97.804 62.0518 98.072 62.0744 98.4496L62.3149 102.483C62.3373 102.861 62.2391 103.142 61.8272 103.208L61.8445 103.5L63.6525 103.398L63.6351 103.106C63.218 103.086 63.0963 102.827 63.0732 102.44L63.0603 102.217L66.4077 98.8421H66.4344L66.6372 102.241C66.6589 102.61 66.5705 102.908 66.1494 102.966L66.1668 103.258L67.9748 103.156L67.9575 102.864C67.5135 102.837 67.4188 102.584 67.3958 102.198L67.1551 98.1644C67.1327 97.7867 67.2043 97.5071 67.634 97.4398L67.6166 97.1479L65.8085 97.2501L65.826 97.5419C66.1186 97.551 66.3695 97.7522 66.3865 98.0354L66.4031 98.3101L63.0552 101.677H63.0284L62.8335 98.4069C62.811 98.0293 62.8826 97.7496 63.3123 97.6823L63.295 97.3905L61.4863 97.4925Z" stroke="#0F244D" stroke-width="2.07548"/>
<path d="M70.3262 96.9772L70.3573 97.2678C70.7749 97.2678 70.9181 97.5314 70.9579 97.9077L71.383 101.927C71.4228 102.303 71.3373 102.588 70.9289 102.672L70.96 102.963L72.7616 102.783L72.7305 102.492C72.313 102.492 72.1794 102.236 72.1387 101.851L72.1156 101.629L75.305 98.112H75.3311L75.6893 101.498C75.7283 101.866 75.653 102.167 75.2352 102.244L75.2664 102.535L77.0679 102.354L77.0375 102.063C76.5926 102.056 76.4864 101.808 76.4457 101.423L76.0206 97.4035C75.9808 97.0272 76.0394 96.7448 76.4658 96.6589L76.4347 96.3682L74.6332 96.5485L74.6644 96.8393C74.9571 96.8393 75.2169 97.026 75.2468 97.3081L75.2758 97.5818L72.0854 101.09H72.0594L71.7148 97.8321C71.675 97.4559 71.7337 97.1734 72.1601 97.0875L72.1288 96.7968L70.3262 96.9772Z" stroke="#0F244D" stroke-width="2.07548"/>
<path d="M20.0836 88.8163C20.6347 88.4143 21.0935 88.0122 21.4601 87.61C21.8267 87.208 22.0849 86.8549 22.235 86.551C22.3851 86.247 22.4725 85.9812 22.4971 85.7538C22.514 85.5169 22.4747 85.3362 22.379 85.2117C21.892 84.5798 20.5809 85.0428 18.4456 86.6009C16.3103 88.159 15.4861 89.254 15.9732 89.886C16.1429 90.1062 16.4392 90.2115 16.8622 90.202C17.278 90.1831 17.7763 90.0514 18.3568 89.8071C18.9374 89.563 19.5129 89.2328 20.0836 88.8163ZM28.718 86.7346L28.0982 85.9302C28.0318 85.844 27.9678 85.801 27.9064 85.801C27.8473 85.7845 27.7734 85.8085 27.6849 85.8731L18.5041 92.5722C18.4155 92.6368 18.3712 92.6991 18.3712 92.7589C18.3538 92.8164 18.3786 92.8881 18.4454 92.9743L19.0651 93.7786L18.711 94.0371L16.6301 91.3369L17.4862 90.7123L17.4196 90.6261C17.0408 90.6931 16.6594 90.687 16.2756 90.6079C15.8919 90.5289 15.5821 90.3362 15.3459 90.0298C14.9622 89.5319 14.7926 88.9526 14.837 88.2919C14.8814 87.6313 15.1028 86.991 15.5013 86.3711C15.8998 85.7512 16.409 85.2151 17.0289 84.7628C17.6489 84.3104 18.3168 83.9801 19.0326 83.7719C19.7485 83.5637 20.4347 83.5267 21.0915 83.6608C21.7483 83.7949 22.2686 84.1109 22.6522 84.6088C22.8884 84.9152 23.0052 85.2563 23.0027 85.6321C22.9977 86.0079 22.8931 86.3909 22.6889 86.781L22.7849 86.8458L26.401 84.2071C26.4896 84.1425 26.5376 84.0851 26.545 84.0347C26.555 83.9677 26.5268 83.8911 26.4602 83.805L25.8403 83.0006L26.1945 82.7422L29.0723 86.4764L28.718 86.7346Z" fill="#0F244D"/>
<path d="M12.4466 84.6272L12.0454 84.8094L10.1349 80.8232L10.5361 80.6411L10.7623 81.113C10.8092 81.2106 10.8924 81.285 11.012 81.3364C11.1264 81.3767 11.2505 81.3665 11.3842 81.3058C11.5068 81.2502 11.6447 81.1414 11.7978 80.9794L15.1244 77.4295L10.9558 78.0337C10.6073 78.0994 10.3439 78.1727 10.1656 78.2536C9.9984 78.3295 9.87417 78.4387 9.79317 78.5811C9.701 78.7286 9.69414 78.8837 9.77234 79.0464L9.97501 79.4694L9.57369 79.6515L8.28711 76.967L8.68843 76.7849L8.85986 77.1428C8.95343 77.338 9.1337 77.4874 9.40044 77.5909C9.66193 77.6835 9.98325 77.7026 10.3645 77.6484L19.9933 76.2895C21.5293 76.0679 22.4869 76.3529 22.8664 77.1447C23.0796 77.5894 23.112 78.0106 22.9632 78.4083C22.8145 78.8059 22.5116 79.1083 22.0546 79.3157C21.6868 79.4827 21.3088 79.5155 20.921 79.4142C20.5332 79.3129 20.2562 79.0887 20.0898 78.7416C19.9651 78.4813 19.9416 78.2344 20.0195 78.0009C20.1035 77.7515 20.2625 77.5736 20.4966 77.4674C20.7753 77.3409 21.0587 77.3377 21.347 77.4578C21.5535 77.549 21.7348 77.5592 21.8909 77.4884C21.9912 77.4428 22.0648 77.3698 22.1116 77.2694C22.1696 77.1639 22.1696 77.0515 22.1116 76.9322C22.0492 76.802 21.914 76.7181 21.7059 76.6805C21.4927 76.6319 21.3006 76.6134 21.1297 76.6251C20.9536 76.6251 20.7386 76.6436 20.4844 76.6805L18.3879 76.9782L12.8148 82.9343C12.5309 83.2481 12.3478 83.5028 12.2653 83.6987C12.1775 83.8838 12.1987 84.112 12.3289 84.3832L12.4466 84.6272Z" fill="#0F244D"/>
<path d="M11.8755 73.801C11.0525 74.0026 10.2679 74.0344 9.52198 73.8963C8.77597 73.7582 8.1267 73.4546 7.57402 72.9853C7.02128 72.5159 6.6532 71.9273 6.47001 71.2193C6.36192 70.8015 6.33598 70.4067 6.39197 70.0351C6.44801 69.6634 6.5712 69.3556 6.76168 69.1114C6.94917 68.8557 7.17245 68.6405 7.43165 68.4659C7.67897 68.2942 7.94586 68.1734 8.23211 68.1032C8.66148 67.998 9.0701 68.0336 9.4582 68.21C9.83437 68.3893 10.069 68.6589 10.1622 69.0187C10.2312 69.2856 10.2107 69.5252 10.1008 69.7373C9.97879 69.9523 9.78076 70.0934 9.50644 70.1606C9.17249 70.2424 8.80824 70.1342 8.41395 69.8358C8.10335 69.6157 7.82284 69.5364 7.57237 69.5978C7.32191 69.6592 7.11785 69.8017 6.96015 70.0255C6.79048 70.2521 6.75833 70.5686 6.86347 70.9748C7.1368 72.0309 8.61513 72.2302 11.2987 71.5727C11.7281 71.4674 12.0502 71.3885 12.2649 71.3359C12.4647 71.2746 12.7045 71.1973 12.9848 71.1039C13.262 70.999 13.5064 70.8898 13.718 70.7762C14.1323 70.5636 14.4317 70.2743 14.616 69.9083C14.8003 69.5422 14.8429 69.1676 14.7438 68.7846C14.6687 68.4945 14.522 68.2466 14.3039 68.0409C14.0827 67.8235 13.8275 67.6701 13.538 67.5806C13.2454 67.4795 12.9366 67.4133 12.6114 67.3818C12.2862 67.3503 11.9655 67.361 11.6494 67.4139L11.5323 66.9613C11.8245 66.9142 12.1168 66.8918 12.4091 66.8942C12.7014 66.8942 13.0044 66.9373 13.3178 67.0234C13.6311 67.107 13.9206 67.2212 14.1864 67.3659C14.4521 67.5106 14.6912 67.7236 14.9035 68.0048C15.1158 68.286 15.2715 68.6181 15.3706 69.0011C15.6529 70.092 15.4548 71.0908 14.7763 71.9976C14.0948 72.8928 13.1278 73.4941 11.8755 73.801Z" fill="#0F244D"/>
<path d="M9.80643 64.7907C8.95911 64.8369 8.18265 64.7233 7.47706 64.4501C6.77147 64.1769 6.19305 63.759 5.74182 63.1962C5.29064 62.6335 5.04419 61.9876 5.00222 61.2587C4.97727 60.8285 5.0285 60.4361 5.1561 60.0815C5.28355 59.727 5.46464 59.4475 5.69924 59.2429C5.93314 59.0264 6.19434 58.8563 6.48289 58.7327C6.75915 58.6097 7.04472 58.5403 7.33945 58.5242C7.78149 58.4999 8.17586 58.6103 8.52259 58.8553C8.85699 59.1008 9.03473 59.4088 9.05604 59.7792C9.07201 60.0541 9.00539 60.2855 8.85593 60.4734C8.69429 60.662 8.47225 60.7639 8.1898 60.7793C7.84596 60.7983 7.50947 60.6249 7.18045 60.259C6.91836 59.9856 6.65837 59.8558 6.40046 59.8699C6.14261 59.884 5.91452 59.9863 5.71605 60.1769C5.50531 60.3682 5.41197 60.673 5.43608 61.0912C5.49866 62.1786 6.91146 62.6471 9.67448 62.4965C10.1166 62.4722 10.448 62.4542 10.669 62.4426C10.8771 62.4193 11.1279 62.3876 11.4212 62.3476C11.7139 62.2957 11.9752 62.2335 12.2051 62.1611C12.6532 62.0288 13.0034 61.8 13.2557 61.4746C13.508 61.1492 13.6229 60.7892 13.6002 60.3949C13.5832 60.0961 13.4876 59.8256 13.3133 59.5834C13.1385 59.3292 12.9176 59.1315 12.6508 58.9903C12.3833 58.837 12.093 58.715 11.7798 58.6242C11.4666 58.5334 11.1496 58.4847 10.8289 58.4782L10.8021 58.0122C11.0982 58.02 11.3894 58.052 11.676 58.1084C11.9626 58.1647 12.2516 58.2628 12.543 58.4027C12.8344 58.5427 13.0964 58.7083 13.3292 58.8994C13.5619 59.0905 13.755 59.3436 13.9087 59.6588C14.0623 59.9741 14.1506 60.3289 14.1733 60.7232C14.2379 61.8465 13.8488 62.7907 13.0059 63.5559C12.1623 64.3091 11.0958 64.7205 9.80643 64.7907Z" fill="#0F244D"/>
<path d="M13.7599 56.2676L13.3213 56.21L13.4152 55.534C13.4302 55.4273 13.4217 55.3537 13.3898 55.3133C13.3479 55.2595 13.272 55.2253 13.1621 55.2108L5.95872 54.2622C5.84903 54.2476 5.77271 54.2617 5.72955 54.3044C5.67585 54.3335 5.64153 54.4015 5.62666 54.5083L5.53254 55.1843L5.09375 55.1268L5.63324 51.2485L6.07203 51.306L5.99289 51.8752C5.97792 51.982 5.99159 52.0623 6.03401 52.1161C6.06545 52.1564 6.13599 52.1839 6.24582 52.1984L9.5001 52.627L9.65617 51.5062C9.69061 51.2572 9.61865 51.0606 9.44034 50.9163C9.26184 50.772 9.01402 50.6789 8.69709 50.6372L7.454 50.4735C6.84458 50.3932 6.39673 50.1772 6.11059 49.8256C5.82604 49.462 5.7142 49.0608 5.77523 48.622C5.83462 48.1951 6.00969 47.8739 6.30028 47.6585C6.59087 47.4432 6.94939 47.3636 7.37597 47.4198C7.70508 47.463 7.9689 47.6185 8.16747 47.8863C8.36603 48.154 8.44717 48.4183 8.41089 48.6792C8.37446 48.9401 8.2648 49.1491 8.08176 49.3061C7.89856 49.4632 7.67889 49.5249 7.42293 49.4912C7.26449 49.4703 7.10223 49.3885 6.9359 49.2458C6.81503 49.1333 6.71183 49.0714 6.6265 49.0602C6.51681 49.0456 6.45382 49.0977 6.43735 49.2164C6.41439 49.3824 6.4859 49.5368 6.65208 49.6795C6.81841 49.8222 7.10277 49.92 7.50499 49.9729L8.76635 50.1391C9.05888 50.1774 9.28563 50.2435 9.44637 50.3374C9.60711 50.431 9.73596 50.5747 9.83308 50.7687L9.92445 50.7803C10.0956 50.1748 10.381 49.7294 10.7806 49.4439C11.182 49.1465 11.7482 49.0459 12.4795 49.1422L13.668 49.2987C13.9971 49.342 14.1798 49.2331 14.216 48.9723C14.2721 48.5691 13.715 48.2904 12.5449 48.1364L12.6093 47.6738C13.4137 47.7798 14.019 47.9802 14.4247 48.2751C14.8306 48.5701 14.9913 49.0201 14.9072 49.625C14.8264 50.2061 14.6097 50.6486 14.2572 50.9524C13.9046 51.2562 13.4236 51.368 12.8141 51.2878L11.3698 51.0975C11.0164 51.0509 10.7314 51.0919 10.5149 51.2205C10.2985 51.349 10.1738 51.5318 10.1408 51.769L10.0122 52.6941L13.4492 53.1467C13.5589 53.1613 13.6407 53.154 13.6945 53.1249C13.7374 53.0821 13.7664 53.0075 13.7814 52.9009L13.8606 52.3316L14.2994 52.3891L13.7599 56.2676Z" fill="#0F244D"/>
<path d="M9.10102 41.8631C9.64697 42.2591 10.6081 42.6995 11.9843 43.1842C13.3606 43.669 14.3886 43.9294 15.0684 43.9653C15.7484 44.0012 16.1805 43.7715 16.3647 43.2763C16.549 42.7812 16.3681 42.3356 15.8221 41.9396C15.2762 41.5436 14.3151 41.1033 12.9388 40.6185C11.5626 40.1337 10.5346 39.8734 9.85469 39.8375C9.17475 39.8015 8.74262 40.0312 8.55843 40.5265C8.37423 41.0216 8.55507 41.4672 9.10102 41.8631ZM13.022 45.6691C12.4073 45.6689 11.7935 45.5609 11.1806 45.345C10.5676 45.129 10.0306 44.8317 9.56978 44.4531C9.09739 44.0703 8.7349 43.6562 8.48204 43.2107C8.21765 42.7612 8.05293 42.2895 7.98806 41.7957C7.92323 41.3019 7.97464 40.8299 8.14212 40.3798C8.30959 39.9296 8.58056 39.5351 8.95518 39.1961C9.32981 38.8571 9.76663 38.5973 10.2655 38.4167C10.7528 38.2319 11.3038 38.1396 11.9185 38.1398C12.5217 38.135 13.1298 38.241 13.7428 38.4578C14.3557 38.6737 14.8983 38.9731 15.3707 39.3558C15.8315 39.7345 16.194 40.1486 16.4585 40.5981C16.7113 41.0436 16.8703 41.5132 16.9351 42.007C16.9999 42.5008 16.9485 42.9728 16.781 43.423C16.6136 43.8731 16.3426 44.2677 15.968 44.6066C15.5933 44.9456 15.1623 45.2075 14.675 45.3922C14.1761 45.5729 13.6252 45.6652 13.022 45.6691Z" fill="#0F244D"/>
<path d="M18.6209 38.4927L18.2387 38.2752L18.5925 37.6863C18.6484 37.5933 18.6698 37.5223 18.6569 37.4732C18.6394 37.4077 18.5829 37.3478 18.4871 37.2934L12.2121 33.7231C12.1165 33.6687 12.0405 33.6532 11.9838 33.6765C11.9227 33.6833 11.8642 33.7332 11.8084 33.8262L11.4544 34.4151L11.0723 34.1977L14.4247 28.6187L17.634 30.3198L17.3732 30.7538C16.9874 30.5897 16.4279 30.4655 15.695 30.3812C15.2577 30.3265 14.8203 30.3549 14.3828 30.4664C13.9516 30.5676 13.6429 30.7732 13.4566 31.0832L13.1865 31.5327C13.1306 31.6257 13.1115 31.7049 13.129 31.7703C13.1419 31.8195 13.1963 31.8712 13.2922 31.9256L19.5672 35.4958C19.6627 35.5502 19.7409 35.574 19.802 35.5672C19.8587 35.5439 19.915 35.4858 19.9709 35.3929L20.3249 34.804L20.707 35.0215L18.6209 38.4927Z" fill="#0F244D"/>
<path d="M18.8617 24.9637C19.2226 25.5255 19.9538 26.2756 21.0551 27.2137C22.1564 28.1517 23.0169 28.7576 23.637 29.0314C24.2571 29.305 24.7455 29.2438 25.102 28.8476C25.4585 28.4513 25.4559 27.9722 25.0945 27.4103C24.7336 26.8485 24.0024 26.0985 22.9011 25.1604C21.7998 24.2224 20.9393 23.6165 20.3192 23.3427C19.6991 23.069 19.2107 23.1303 18.8542 23.5265C18.4978 23.9228 18.5003 24.4018 18.8617 24.9637ZM21.0944 29.8954C20.5217 29.678 19.99 29.3604 19.4995 28.9426C19.009 28.5248 18.6199 28.0581 18.3319 27.5424C18.0347 27.0188 17.8513 26.5048 17.782 26.0003C17.7035 25.4881 17.7262 24.9905 17.8502 24.5075C17.9741 24.0245 18.198 23.6029 18.522 23.2427C18.8461 22.8825 19.246 22.6107 19.7216 22.4273C20.1971 22.2439 20.7011 22.1561 21.2333 22.1641C21.7563 22.1642 22.3041 22.273 22.8768 22.4904C23.4403 22.6999 23.9672 23.0137 24.4576 23.4315C24.9481 23.8493 25.3419 24.32 25.6391 24.8435C25.9271 25.3592 26.1105 25.8732 26.189 26.3855C26.2583 26.8899 26.231 27.3836 26.1071 27.8666C25.9832 28.3495 25.7592 28.7712 25.4351 29.1314C25.1111 29.4916 24.7113 29.7633 24.2357 29.9467C23.7602 30.1301 23.2608 30.2218 22.7379 30.2217C22.2057 30.214 21.6579 30.1052 21.0944 29.8954Z" fill="#0F244D"/>
<path d="M31.4792 19.9355L31.9004 19.7124C32.1355 20.1329 32.3787 20.4675 32.6298 20.7161C32.8808 20.9647 33.1089 21.0347 33.3142 20.926C33.5519 20.8001 33.5913 20.5952 33.4326 20.3114L32.8595 19.2864C32.5068 18.6556 32.3965 18.1077 32.5285 17.6427C32.6713 17.172 33.003 16.7511 33.5236 16.38L33.4796 16.3012C33.2479 16.2876 33.0585 16.2243 32.9114 16.1115C32.775 15.9929 32.6363 15.8075 32.4953 15.5552L31.8869 14.4671C31.6928 14.1202 31.4977 13.8964 31.3015 13.796C31.1053 13.6954 30.9316 13.6853 30.7803 13.7654C30.6723 13.8225 30.6448 13.8984 30.6977 13.9931C30.7386 14.0667 30.8348 14.1384 30.9861 14.2083C31.1823 14.3088 31.3185 14.4274 31.3949 14.564C31.5184 14.7848 31.5375 15.0065 31.4519 15.2289C31.3663 15.4514 31.2046 15.6255 30.9669 15.7514C30.7184 15.8829 30.4302 15.906 30.1025 15.8206C29.7855 15.7295 29.5478 15.5421 29.389 15.2583C29.1833 14.8903 29.132 14.5359 29.2355 14.195C29.3389 13.8541 29.5851 13.5807 29.974 13.3748C30.3738 13.1632 30.7936 13.1249 31.2332 13.26C31.6835 13.3894 32.0557 13.7169 32.3496 14.2426L32.9492 15.3148C33.1021 15.5882 33.2795 15.7803 33.4816 15.8913C33.6945 15.9966 33.909 15.9921 34.125 15.8776L34.8381 15.5L33.2687 12.6932C33.2157 12.5985 33.1588 12.5468 33.098 12.5382C33.042 12.5134 32.9655 12.5268 32.8683 12.5783L32.2524 12.9043L32.0407 12.5258L35.5735 10.6554L35.7852 11.0339L35.2667 11.3084C35.1694 11.3599 35.1109 11.4181 35.0913 11.483C35.0763 11.5317 35.0952 11.6034 35.1481 11.698L36.7176 14.5049L37.4307 14.1274C37.6467 14.0129 37.7617 13.843 37.7757 13.6176C37.8007 13.3865 37.7366 13.1343 37.5836 12.8609L36.984 11.7887C36.6901 11.263 36.6044 10.784 36.7265 10.3514C36.8595 9.91309 37.1258 9.58806 37.5255 9.37643C37.9145 9.17049 38.2841 9.11786 38.6345 9.21852C38.9848 9.31918 39.2628 9.55355 39.4686 9.92148C39.6272 10.2053 39.6544 10.5042 39.5501 10.8184C39.4564 11.1268 39.2854 11.3468 39.0369 11.4784C38.7992 11.6043 38.5612 11.6418 38.3227 11.5909C38.0843 11.54 37.9032 11.4042 37.7797 11.1834C37.7033 11.0467 37.6751 10.871 37.6949 10.6561C37.7169 10.4947 37.7073 10.3772 37.6659 10.3036C37.613 10.209 37.5325 10.1902 37.4245 10.2474C37.2732 10.3275 37.1876 10.475 37.1677 10.6899C37.1477 10.9048 37.2349 11.1857 37.429 11.5326L38.0372 12.6208C38.1784 12.8731 38.2577 13.09 38.2752 13.2715C38.3036 13.4472 38.2608 13.6334 38.1465 13.8301L38.1906 13.9089C38.7935 13.685 39.3315 13.6455 39.8045 13.7902C40.2883 13.9292 40.7066 14.3141 41.0592 14.9448L41.6323 15.9699C41.791 16.2537 41.9893 16.3326 42.227 16.2068C42.4323 16.0981 42.4958 15.8737 42.4176 15.5335C42.3395 15.1934 42.1829 14.8132 41.9478 14.3927L42.369 14.1696C42.757 14.8634 42.9488 15.4568 42.9443 15.9497C42.9393 16.4426 42.6562 16.8377 42.0949 17.1351C41.5655 17.4154 41.0707 17.507 40.6104 17.4101C40.1501 17.3131 39.7731 17.0019 39.4792 16.4763L38.7827 15.2305C38.6122 14.9257 38.4097 14.7263 38.1752 14.6324C37.9407 14.5386 37.7153 14.5488 37.4992 14.663L36.9645 14.9462L38.6222 17.9107C38.6751 18.0053 38.7295 18.0651 38.7854 18.09C38.8463 18.0987 38.9254 18.0773 39.0226 18.0258L39.5411 17.7514L39.7527 18.1298L36.2199 20.0002L36.0083 19.6218L36.6242 19.2957C36.7214 19.2443 36.7774 19.1942 36.7921 19.1455C36.8116 19.0805 36.7952 19.0007 36.7428 18.9061L35.085 15.9416L34.5503 16.2247C34.3342 16.3391 34.203 16.5176 34.1567 16.7601C34.1103 17.0027 34.1722 17.2765 34.3427 17.5814L35.0394 18.8271C35.3332 19.3527 35.397 19.8298 35.2307 20.2585C35.0644 20.6872 34.7164 21.0417 34.187 21.322C33.6252 21.6194 33.1305 21.6363 32.7029 21.3723C32.2751 21.1083 31.8671 20.6293 31.4792 19.9355Z" fill="#0F244D"/>
<path d="M43.7642 11.8387C43.4268 10.601 43.4969 9.48092 43.9744 8.47855C44.4519 7.47618 45.19 6.84602 46.1886 6.58821C46.9138 6.40107 47.5998 6.4903 48.2466 6.85576C48.9053 7.21821 49.4373 7.79279 49.8428 8.57965C50.0269 8.92835 50.2261 9.49603 50.4405 10.2826L46.0894 11.4058C46.1903 11.776 46.2677 12.0594 46.3213 12.256C46.3868 12.4496 46.4661 12.6706 46.5592 12.919C46.6643 13.1643 46.7765 13.3891 46.8959 13.5935C47.1195 13.9939 47.4206 14.2815 47.799 14.4562C48.1775 14.631 48.5628 14.6676 48.9551 14.5664C49.2524 14.4897 49.5053 14.3439 49.7139 14.1291C49.9344 13.9112 50.0889 13.6609 50.1772 13.378C50.2775 13.0921 50.3417 12.7908 50.3698 12.474C50.3978 12.1572 50.3827 11.8453 50.3249 11.5384L50.7885 11.4187C50.8404 11.7025 50.867 11.9866 50.8682 12.2711C50.8682 12.5556 50.8278 12.8507 50.747 13.1567C50.665 13.4626 50.5513 13.7459 50.406 14.0062C50.2607 14.2667 50.0448 14.5019 49.7585 14.712C49.4722 14.9221 49.1329 15.0778 48.7406 15.179C47.6231 15.4675 46.5942 15.2872 45.6539 14.6384C44.7254 13.9866 44.0953 13.0534 43.7642 11.8387ZM45.9569 10.9199L48.2395 10.3307C47.9052 9.10452 47.576 8.22365 47.2519 7.68818C46.9396 7.14971 46.5636 6.93722 46.1237 7.05075C45.6839 7.16428 45.4596 7.53175 45.4508 8.15312C45.4558 8.77138 45.6245 9.69367 45.9569 10.9199Z" fill="#0F244D"/>
<path d="M53.0805 9.68656C53.0248 8.86255 53.1339 8.10594 53.4077 7.41673C53.6815 6.72753 54.1054 6.16061 54.6793 5.71605C55.2532 5.27149 55.9146 5.02523 56.6632 4.97725C57.105 4.94909 57.5087 4.99514 57.8743 5.11552C58.24 5.23599 58.529 5.40938 58.7415 5.63567C58.9663 5.86113 59.1436 6.11367 59.2735 6.39323C59.4025 6.66079 59.4767 6.93794 59.4961 7.22459C59.525 7.65448 59.4156 8.03929 59.1675 8.37906C58.9185 8.70684 58.6039 8.88293 58.2234 8.90731C57.9411 8.92527 57.7025 8.8626 57.5079 8.71925C57.3125 8.56386 57.2056 8.34882 57.187 8.07417C57.1645 7.73979 57.3395 7.41069 57.7119 7.08695C57.9902 6.82924 58.121 6.57495 58.1041 6.32414C58.0871 6.07338 57.9797 5.85242 57.7819 5.66119C57.5832 5.45802 57.2691 5.3702 56.8396 5.39773C55.7227 5.46926 55.2552 6.84854 55.437 9.53558C55.4659 9.96548 55.4878 10.2879 55.5028 10.5029C55.5287 10.7051 55.5637 10.9488 55.6077 11.2338C55.6639 11.518 55.7303 11.7716 55.807 11.9946C55.9474 12.4294 56.186 12.7679 56.5229 13.0102C56.8598 13.2525 57.2309 13.3607 57.6358 13.3348C57.9426 13.3148 58.2195 13.2192 58.4668 13.0476C58.7263 12.8751 58.9275 12.6583 59.0701 12.3973C59.2249 12.1355 59.3474 11.8519 59.4376 11.5462C59.5279 11.2406 59.5748 10.9316 59.5783 10.6195L60.057 10.589C60.052 10.8772 60.0219 11.161 59.9667 11.4403C59.9116 11.7197 59.8136 12.0019 59.6726 12.2868C59.5317 12.5717 59.3642 12.8283 59.1701 13.0566C58.976 13.285 58.7177 13.4754 58.3952 13.628C58.0727 13.7806 57.709 13.8699 57.304 13.8958C56.1503 13.9697 55.1761 13.6004 54.3816 12.7877C53.5993 11.9743 53.1654 10.9405 53.0805 9.68656Z" fill="#0F244D"/>
<path d="M62.3906 8.56791L62.9241 5.0498L70.2539 5.88205L69.9405 9.42523L69.4273 9.36691C69.4084 8.90685 69.3037 8.33466 69.1132 7.65031C69.0014 7.23998 68.8344 6.87765 68.6121 6.56323C68.4019 6.25022 68.1624 6.07842 67.8937 6.04788C67.7715 6.0338 67.6899 6.04254 67.649 6.07411C67.608 6.10567 67.5805 6.18086 67.5662 6.29969L66.7237 13.3251C66.7107 13.4321 66.7198 13.5115 66.7507 13.5632C66.7952 13.6044 66.8723 13.6313 66.9825 13.6437L68.0088 13.7603L67.9571 14.1882L63.1925 13.6473L63.2443 13.2192L64.2704 13.3358C64.3804 13.3484 64.4557 13.3389 64.4967 13.3074C64.5513 13.2656 64.5851 13.1911 64.5979 13.0838L65.4404 6.05837C65.4549 5.9395 65.4458 5.86016 65.4134 5.82034C65.3809 5.78053 65.3037 5.75363 65.1816 5.73979C64.9128 5.70919 64.633 5.822 64.3422 6.0782C64.0637 6.33576 63.8215 6.6517 63.6156 7.02595C63.4578 7.30929 63.3198 7.58278 63.2015 7.84646C63.0832 8.11018 63.004 8.30609 62.9639 8.4341L62.904 8.62598L62.3906 8.56791Z" fill="#0F244D"/>
<path d="M75.7658 8.52065C75.3756 9.0636 74.9522 10.0117 74.4959 11.3649C74.0395 12.7181 73.8034 13.7259 73.7871 14.3883C73.7707 15.0507 74.0195 15.464 74.5339 15.6282C75.0481 15.7924 75.5004 15.603 75.8906 15.06C76.2808 14.517 76.704 13.5689 77.1604 12.2157C77.6168 10.8625 77.853 9.85472 77.8693 9.19232C77.8858 8.52992 77.6368 8.11658 77.1224 7.9524C76.6082 7.78822 76.156 7.97766 75.7658 8.52065ZM71.975 12.4493C71.9565 11.8514 72.0489 11.2511 72.2522 10.6484C72.4555 10.0457 72.7446 9.51461 73.1197 9.05494C73.4986 8.58392 73.913 8.21865 74.363 7.95924C74.8167 7.68847 75.2962 7.51414 75.8014 7.43615C76.3067 7.35817 76.7931 7.39376 77.2605 7.54303C77.728 7.6923 78.1416 7.944 78.5011 8.2981C78.8606 8.65224 79.1407 9.06919 79.3414 9.54896C79.5458 10.0173 79.6573 10.5505 79.6758 11.1484C79.6983 11.7349 79.6077 12.3295 79.4042 12.9322C79.201 13.5349 78.91 14.0718 78.531 14.5428C78.156 15.0024 77.7414 15.3676 77.2876 15.6384C76.8377 15.8978 76.3602 16.0665 75.855 16.1445C75.3497 16.2225 74.8633 16.1868 74.3959 16.0375C73.9284 15.8883 73.5149 15.6366 73.1554 15.2825C72.7959 14.9283 72.5139 14.517 72.3094 14.0487C72.1087 13.569 71.9972 13.0358 71.975 12.4493Z" fill="#0F244D"/>
<path d="M82.6379 18.5095C82.583 18.6031 82.5593 18.6795 82.5668 18.7389C82.5913 18.7938 82.6515 18.848 82.7475 18.9015L83.3563 19.24C83.698 19.43 84.0489 19.4116 84.409 19.1846C84.769 18.9575 85.0893 18.6049 85.3701 18.1269C85.6508 17.649 85.7912 17.2171 85.7913 16.8311C85.7913 16.4451 85.6205 16.1571 85.2789 15.967L84.4139 15.486L82.6379 18.5095ZM84.6705 15.0495L85.4232 15.4682C85.9999 15.7889 86.5781 15.4557 87.1579 14.4686C87.4326 14.001 87.5629 13.598 87.5492 13.2595C87.5442 12.927 87.4093 12.6865 87.1444 12.5381L86.6479 12.2618C86.5518 12.2084 86.4701 12.1906 86.403 12.2087C86.3526 12.2223 86.3 12.2757 86.2451 12.369L84.6705 15.0495ZM79.5488 17.6184L79.7685 17.2445L80.3771 17.583C80.4732 17.6364 80.5466 17.6563 80.5969 17.6427C80.664 17.6247 80.7251 17.5691 80.78 17.4757L84.387 11.335C84.442 11.2414 84.4572 11.1673 84.4327 11.1123C84.4252 11.0529 84.3735 10.9965 84.2772 10.943L83.6684 10.6044L83.8881 10.2305L87.7484 12.3774C88.4639 12.7753 88.9381 13.246 89.1715 13.7893C89.4155 14.3386 89.3728 14.8938 89.0432 15.4549C88.7685 15.9224 88.3618 16.1925 87.8233 16.2652C87.3016 16.3335 86.7364 16.2465 86.1277 16.0044L86.091 16.0671C86.7973 16.5289 87.2688 17.0529 87.5052 17.6393C87.7415 18.2257 87.6857 18.8151 87.3377 19.4073C87.0143 19.958 86.5216 20.2905 85.8595 20.4047C85.1974 20.5189 84.5406 20.395 83.8892 20.0327L79.5488 17.6184Z" fill="#0F244D"/>
<path d="M94.5753 18.4743C93.998 18.8258 93.2277 19.5375 92.2642 20.6096C91.3007 21.6817 90.6785 22.5195 90.3975 23.1231C90.1165 23.7266 90.1798 24.2017 90.5872 24.5484C90.9946 24.8951 91.4868 24.8926 92.0641 24.5411C92.6413 24.1897 93.4117 23.4779 94.3752 22.4058C95.3386 21.3337 95.961 20.4958 96.242 19.8923C96.5229 19.2887 96.4596 18.8137 96.0523 18.467C95.6449 18.1204 95.1526 18.1228 94.5753 18.4743ZM89.5083 20.6493C89.7314 20.0919 90.0575 19.5745 90.4865 19.0969C90.9157 18.6194 91.3952 18.2404 91.925 17.96C92.4629 17.6705 92.9912 17.4919 93.5095 17.4242C94.0359 17.3474 94.5473 17.3694 95.0437 17.4898C95.5401 17.6101 95.9734 17.8277 96.3438 18.1429C96.7141 18.458 96.9937 18.8469 97.1824 19.3096C97.3712 19.7723 97.4616 20.2626 97.4536 20.7804C97.4538 21.2893 97.3423 21.8225 97.1192 22.3799C96.9042 22.9282 96.5821 23.4412 96.153 23.9187C95.7239 24.3962 95.2402 24.7797 94.7023 25.0692C94.1725 25.3497 93.6444 25.5283 93.118 25.605C92.5997 25.6727 92.0923 25.6464 91.5958 25.526C91.0995 25.4057 90.6661 25.188 90.2957 24.8729C89.9254 24.5577 89.6458 24.1688 89.4571 23.7061C89.2683 23.2434 89.174 22.7577 89.1738 22.2488C89.1818 21.7309 89.2933 21.1976 89.5083 20.6493Z" fill="#0F244D"/>
<path d="M94.3691 28.3107L94.7169 28.0441L95.1508 28.5799C95.2193 28.6645 95.2795 28.7099 95.3313 28.7159C95.4004 28.7237 95.4785 28.6943 95.5654 28.6278L101.275 24.2503C101.362 24.1836 101.405 24.1204 101.403 24.0606C101.419 24.0027 101.393 23.9315 101.324 23.8469L100.89 23.311L101.238 23.0444L105.349 28.1209L102.548 30.4053L102.228 30.0104C102.526 29.721 102.849 29.2598 103.198 28.6268C103.41 28.2508 103.543 27.8442 103.596 27.4072C103.657 26.9796 103.574 26.6248 103.345 26.3428L103.014 25.9338C102.946 25.8492 102.877 25.803 102.808 25.795C102.756 25.7892 102.686 25.8195 102.599 25.8861L96.8898 30.2636C96.8029 30.3302 96.7516 30.3924 96.7358 30.4503C96.7358 30.5101 96.7707 30.5823 96.8407 30.667L97.2745 31.2028L96.9268 31.4694L94.3691 28.3107Z" fill="#0F244D"/>
<path d="M107.216 33.464C106.547 33.5865 105.563 33.9762 104.264 34.633C102.965 35.2898 102.072 35.8494 101.585 36.3118C101.097 36.7743 100.978 37.239 101.227 37.7063C101.477 38.1736 101.936 38.3459 102.605 38.2233C103.275 38.1008 104.259 37.711 105.557 37.0543C106.856 36.3975 107.749 35.838 108.237 35.3755C108.724 34.9131 108.844 34.4482 108.594 33.981C108.344 33.5137 107.885 33.3413 107.216 33.464ZM101.683 33.6927C102.099 33.2528 102.597 32.8866 103.175 32.5941C103.753 32.3016 104.342 32.1186 104.94 32.0453C105.55 31.9665 106.108 31.9873 106.616 32.1079C107.135 32.2231 107.604 32.4248 108.021 32.7129C108.438 33.0009 108.76 33.3574 108.987 33.7822C109.214 34.207 109.328 34.6683 109.331 35.1661C109.336 35.6638 109.236 36.1524 109.033 36.6319C108.842 37.1059 108.539 37.5628 108.122 38.0027C107.717 38.4371 107.225 38.8006 106.646 39.0931C106.068 39.3856 105.474 39.5713 104.865 39.6501C104.266 39.7235 103.707 39.7026 103.188 39.5875C102.68 39.4668 102.218 39.2624 101.801 38.9743C101.383 38.6862 101.061 38.3298 100.834 37.905C100.608 37.4802 100.493 37.0189 100.49 36.5211C100.485 36.0233 100.579 35.5375 100.772 35.0635C100.974 34.5841 101.277 34.1272 101.683 33.6927Z" fill="#0F244D"/>
<path d="M107.108 46.6289L107.184 47.0898C106.018 47.2717 105.468 47.5635 105.534 47.9653C105.577 48.2253 105.762 48.3296 106.09 48.2785L107.201 48.1052C107.894 47.9972 108.427 48.0958 108.801 48.4011C109.187 48.7045 109.488 49.1667 109.702 49.7878L109.793 49.7739C109.803 48.1723 110.373 47.2834 111.503 47.1073C112.183 47.0012 112.769 47.1946 113.261 47.6875C113.766 48.1785 114.095 48.8908 114.248 49.8243L114.923 53.919L114.486 53.9874L114.392 53.4202C114.375 53.3138 114.338 53.2408 114.282 53.2012C114.239 53.1715 114.163 53.1652 114.054 53.1822L106.877 54.3018C106.768 54.3188 106.692 54.3488 106.649 54.3919C106.62 54.4448 106.615 54.5245 106.632 54.6309L106.743 55.3045L106.306 55.3729L105.652 51.4024L106.089 51.3339L106.2 52.0076C106.218 52.1139 106.248 52.1819 106.29 52.2117C106.346 52.2515 106.429 52.2629 106.538 52.2459L109.963 51.7117L109.849 51.0204C109.719 50.2287 109.228 49.8991 108.378 50.0317L106.994 50.2477C106.387 50.3424 105.903 50.2421 105.543 49.9468C105.183 49.6514 104.955 49.2143 104.86 48.6352C104.761 48.0325 104.91 47.5789 105.308 47.2743C105.706 46.9698 106.306 46.755 107.108 46.63L107.108 46.6289ZM113.852 50.1403C113.722 49.3486 113.055 49.0464 111.853 49.234C110.651 49.4216 110.115 49.9112 110.245 50.703L110.4 51.6425L113.715 51.1253C113.825 51.1083 113.894 51.0732 113.922 51.0203C113.963 50.9654 113.975 50.8848 113.958 50.7785L113.852 50.1403Z" fill="#0F244D"/>
<path d="M107.204 57.2565C107.491 57.1081 107.819 57.0385 108.188 57.0477C108.557 57.0569 108.867 57.1783 109.119 57.4121C109.371 57.6578 109.493 57.9422 109.484 58.2652C109.477 58.5523 109.385 58.7835 109.208 58.9587C109.031 59.1339 108.826 59.2185 108.592 59.2127C108.236 59.2039 107.963 59.0355 107.775 58.7075C107.609 58.4519 107.441 58.3221 107.268 58.3178C106.973 58.3105 106.755 58.4366 106.612 58.6964C106.47 58.9563 106.394 59.2896 106.383 59.6964C106.373 60.1032 106.555 60.419 106.93 60.6439C107.318 60.869 107.869 60.9905 108.582 61.0082C109.823 61.0393 110.454 60.6779 110.474 59.924L110.517 58.2909L111.033 58.3041L110.991 59.9192C110.986 60.0628 111.007 60.195 111.054 60.3159C111.1 60.4367 111.178 60.5285 111.287 60.591C111.396 60.6656 111.505 60.7221 111.615 60.7608C111.724 60.8114 111.859 60.8447 112.018 60.8606C112.177 60.8888 112.312 60.9041 112.423 60.9065C112.533 60.9211 112.674 60.9305 112.847 60.9349C114.052 60.965 114.663 60.6391 114.681 59.9571C114.69 59.6101 114.539 59.2831 114.227 58.976C113.927 58.6692 113.553 58.4204 113.102 58.2296C112.652 58.0388 112.17 57.8892 111.656 57.7806L111.667 57.3498L115.079 57.4349L115.068 57.8656L114.622 57.9981C114.485 58.0428 114.416 58.1129 114.413 58.2085C114.413 58.2802 114.472 58.3954 114.589 58.554C114.956 59.078 115.132 59.651 115.116 60.2732C115.092 61.1585 114.865 61.8412 114.434 62.3213C114.003 62.8014 113.468 63.0336 112.829 63.0176C112.362 63.006 111.942 62.816 111.57 62.4476C111.199 62.0792 110.959 61.6182 110.85 61.0648H110.739C110.379 62.5882 109.572 63.3343 108.318 63.3031C107.568 63.2846 106.974 62.9466 106.536 62.289C106.111 61.6319 105.913 60.741 105.942 59.6164C105.951 59.2933 106.002 58.9774 106.096 58.6684C106.19 58.3714 106.327 58.0995 106.505 57.8525C106.684 57.6056 106.917 57.4079 107.204 57.2594L107.204 57.2565Z" fill="#0F244D"/>
<path d="M104.333 71.3526L104.761 71.4616L104.612 72.0174C104.584 72.1216 104.584 72.1955 104.612 72.2393C104.647 72.2978 104.718 72.3406 104.826 72.3679L111.858 74.1571C111.965 74.1843 112.043 74.1792 112.091 74.1418C112.148 74.119 112.19 74.0556 112.218 73.9516L112.368 73.3958L112.796 73.5048L111.779 77.2911L111.35 77.1822L111.528 76.5222C111.556 76.418 111.552 76.3366 111.517 76.2781C111.491 76.2344 111.424 76.1989 111.317 76.1716L104.284 74.3823C104.177 74.3552 104.095 74.3527 104.038 74.3751C103.99 74.4124 103.952 74.4832 103.924 74.5873L103.747 75.2472L103.318 75.1383L104.333 71.3526ZM106.135 64.6484L106.563 64.7574L106.385 65.4174C106.358 65.5216 106.358 65.5956 106.385 65.6395C106.42 65.6979 106.491 65.7407 106.599 65.768L113.631 67.5571C113.738 67.5843 113.816 67.5792 113.864 67.5418C113.921 67.519 113.964 67.4557 113.992 67.3516L114.169 66.6917L114.597 66.8006L113.561 70.6564L113.133 70.5474L113.292 69.9569C113.322 69.8411 113.315 69.7525 113.268 69.6911C113.221 69.6296 113.12 69.5792 112.965 69.5398L109.948 68.7723L109.547 70.2661C109.354 70.984 108.974 71.5242 108.406 71.8869C107.838 72.2496 107.233 72.3492 106.59 72.1858C105.948 72.0223 105.464 71.6457 105.14 71.0559C104.815 70.4661 104.749 69.8123 104.942 69.0944L106.135 64.6484ZM106.055 67.7827C105.948 67.7555 105.866 67.7531 105.809 67.7754C105.761 67.8128 105.723 67.8835 105.695 67.9875L105.564 68.4738C105.465 68.8443 105.568 69.1677 105.876 69.4438C106.183 69.7199 106.61 69.9275 107.157 70.0668C107.705 70.206 108.176 70.2269 108.571 70.1294C108.966 70.032 109.213 69.7979 109.312 69.4274L109.518 68.6632L106.055 67.7827Z" fill="#0F244D"/>
<path d="M102.672 76.4751L103.06 76.6816L102.724 77.2803C102.671 77.3749 102.652 77.4465 102.667 77.4952C102.686 77.5602 102.744 77.6185 102.842 77.6701L109.221 81.0603C109.318 81.1119 109.395 81.1253 109.451 81.1003C109.512 81.0915 109.569 81.04 109.622 80.9457L109.958 80.3469L110.347 80.5535L108.419 83.9882L108.03 83.7817L108.313 83.2775C108.366 83.1829 108.383 83.1032 108.363 83.0383C108.348 82.9895 108.292 82.9393 108.195 82.8877L105.313 81.3561L104.756 82.3487C104.632 82.5693 104.627 82.778 104.741 82.9748C104.855 83.1716 105.052 83.3446 105.333 83.4938L106.434 84.0789C106.974 84.3657 107.313 84.7231 107.451 85.1511C107.583 85.5895 107.54 86.0031 107.322 86.3918C107.11 86.7699 106.828 87.0091 106.478 87.1092C106.127 87.2093 105.763 87.1589 105.386 86.9582C105.094 86.8033 104.905 86.5663 104.818 86.2472C104.73 85.9282 104.752 85.6531 104.881 85.422C105.011 85.1909 105.19 85.0338 105.419 84.9509C105.648 84.8679 105.875 84.8866 106.102 85.007C106.242 85.0815 106.364 85.2144 106.467 85.4055C106.539 85.5526 106.612 85.6463 106.688 85.6865C106.785 85.7381 106.863 85.7113 106.922 85.6062C107.004 85.4592 106.994 85.2902 106.891 85.0991C106.788 84.908 106.559 84.7178 106.202 84.5285L105.085 83.9347C104.826 83.7971 104.639 83.6566 104.523 83.5133C104.407 83.37 104.339 83.1909 104.32 82.976L104.239 82.9329C103.857 83.439 103.427 83.7558 102.949 83.8836C102.465 84.0219 101.899 83.9189 101.251 83.5748L100.199 83.0154C99.9073 82.8606 99.6968 82.8987 99.5671 83.1298C99.3667 83.4869 99.7845 83.9409 100.821 84.4915L100.591 84.9012C99.8784 84.5226 99.3869 84.1249 99.1163 83.7084C98.8456 83.2918 98.8604 82.8156 99.161 82.2799C99.4499 81.7652 99.8147 81.4273 100.256 81.2661C100.696 81.1049 101.187 81.1677 101.727 81.4545L103.006 82.1344C103.319 82.3007 103.6 82.3614 103.849 82.3167C104.099 82.272 104.282 82.1446 104.4 81.9344L104.86 81.1151L101.816 79.4975C101.719 79.4459 101.64 79.4243 101.579 79.4327C101.523 79.4575 101.468 79.5171 101.415 79.6117L101.132 80.1159L100.744 79.9093L102.672 76.4751Z" fill="#0F244D"/>
<path d="M97.9148 87.7489C97.4574 87.367 97.068 87.1838 96.7464 87.1993C96.4249 87.2148 96.1722 87.327 95.988 87.5357C95.6757 87.89 95.6367 88.3384 95.8712 88.8812L98.6434 91.1958L99.0361 90.1991C99.334 89.4385 98.9602 88.6218 97.9148 87.7489ZM99.2545 85.9816C99.5159 86.1998 99.7145 86.4524 99.8505 86.7393C99.9864 87.0262 100.07 87.3087 100.1 87.5865C100.131 87.8643 100.115 88.1667 100.054 88.4938C100.001 88.8287 99.9325 89.1182 99.847 89.3622C99.7709 89.614 99.6706 89.893 99.5464 90.1993L99.0215 91.5115L99.9737 92.3064C100.45 92.7039 100.879 92.8969 101.262 92.8854C101.645 92.8737 101.968 92.7181 102.233 92.4186C102.449 92.1734 102.581 91.9047 102.627 91.6127C102.684 91.3284 102.609 91.1005 102.404 90.9291C102.236 90.7888 102.036 90.7484 101.805 90.808C101.609 90.865 101.437 90.8864 101.287 90.8721C101.147 90.8653 100.998 90.7958 100.839 90.6635C100.606 90.4687 100.496 90.2434 100.511 89.9876C100.526 89.7319 100.622 89.5042 100.798 89.3043C101.006 89.0682 101.266 88.93 101.576 88.89C101.889 88.8667 102.199 88.9837 102.507 89.2409C102.861 89.5371 103.083 89.9111 103.17 90.3629C103.259 90.8315 103.229 91.2793 103.08 91.7064C102.939 92.1412 102.725 92.5221 102.437 92.849C102.228 93.0852 102.005 93.2928 101.766 93.4718C101.527 93.6508 101.255 93.8026 100.951 93.927C100.647 94.0515 100.339 94.1253 100.027 94.1485C99.7145 94.1718 99.3836 94.1243 99.0341 94.0059C98.6846 93.8876 98.3467 93.6921 98.02 93.4193L94.4775 90.4616C94.1415 90.1811 93.8934 90.1316 93.7332 90.3132C93.589 90.4767 93.621 90.7163 93.829 91.0319C94.0369 91.3474 94.3229 91.6571 94.687 91.961L94.3505 92.3426C93.6691 91.7736 93.2578 91.2568 93.1166 90.792C93.0367 90.5517 93.0296 90.2934 93.095 90.017C93.1525 89.7496 93.2813 89.5024 93.4815 89.2753C93.81 88.9029 94.1189 88.672 94.4085 88.5825C94.698 88.4931 95.0295 88.4931 95.403 88.5825L95.4269 88.5556C95.2433 87.7714 95.4398 87.0524 96.0165 86.3984C96.1766 86.2167 96.3427 86.0559 96.5149 85.9158C96.6871 85.7757 96.8827 85.655 97.1015 85.5539C97.3217 85.4696 97.5444 85.4191 97.7698 85.4023C97.9873 85.3945 98.2261 85.4362 98.4862 85.5273C98.7463 85.6183 99.0023 85.769 99.2543 85.9794L99.2545 85.9816Z" fill="#0F244D"/>
<path fill-rule="evenodd" clip-rule="evenodd" d="M55.7094 80.1678C55.2587 79.1097 54.4928 77.6715 53.9637 76.8899C52.0617 74.08 48.9521 71.6812 45.7732 70.5719L45.1973 70.3709L45.933 69.3056C46.3668 68.6774 46.736 68.0322 46.8327 67.733C47.0794 66.9697 47.9986 65.9423 48.7554 65.5838C49.0229 65.4571 49.0611 65.4608 49.3641 65.643C49.5506 65.7552 49.7935 65.8256 49.9381 65.8094C50.154 65.7852 50.1926 65.7374 50.216 65.4649C50.238 65.2097 50.1812 65.0762 49.922 64.7744C49.6292 64.4333 49.6008 64.3515 49.6008 63.8491C49.6008 63.546 49.6418 62.8065 49.6919 62.2059C49.742 61.6052 49.8227 58.8561 49.8712 56.0969C49.962 50.9238 50.003 50.3164 50.3672 48.7472C50.6193 47.6607 50.8301 46.1071 50.9586 44.3896C51.0692 42.9115 51.1935 41.9616 51.3849 41.1324C51.481 40.7158 51.531 40.0171 51.5392 38.9756C51.5504 37.5515 51.5673 37.4033 51.7633 37.0145C51.8798 36.7832 52.1377 36.4586 52.3362 36.2932C52.8572 35.8593 53.318 35.7872 54.4855 35.9566C55.3131 36.0767 55.6319 36.08 56.9513 35.9818C59.8109 35.7692 61.3042 36.0994 62.0305 37.1051C62.2614 37.4247 62.3058 37.5831 62.3565 38.2672C62.4 38.8534 62.4584 39.1057 62.581 39.2375C62.8111 39.4849 62.93 39.4626 63.2741 39.1077C63.4384 38.9382 63.6451 38.7995 63.7335 38.7995C63.973 38.7995 64.5819 39.3746 64.7942 39.8013C65.0559 40.3273 65.0335 40.6101 64.7049 40.9299C64.4558 41.1723 64.3868 41.1941 63.9872 41.1567C62.945 41.0592 61.7913 40.1551 61.0892 38.8855C60.406 37.6501 60.2646 37.5491 59.8374 37.9916C59.5618 38.2771 58.326 38.6239 57.5879 38.6229C56.9997 38.622 55.7618 38.3234 55.2018 38.0473C54.9492 37.9228 54.634 37.8331 54.5013 37.8481C54.136 37.8891 54.1251 38.2796 54.4759 38.7548C54.8595 39.2746 54.9602 39.8027 54.8848 40.898L54.8218 41.8141L54.3711 41.7622C53.475 41.6589 53.3647 42.0069 53.9491 43.0931C54.4177 43.9642 54.4942 44.4257 54.215 44.6974C54.0565 44.8516 53.9464 44.883 53.7005 44.8442C53.3282 44.7854 52.995 44.8919 52.9148 45.0954C52.8829 45.1763 52.935 45.4146 53.0306 45.625C53.2666 46.1441 53.5974 46.2319 55.3003 46.227C56.7174 46.2229 57.9551 46.1117 59.7333 45.8289C61.9569 45.4752 63.4129 45.6011 64.1237 46.2084C64.5256 46.5517 64.6238 46.8829 64.604 47.8271C64.5885 48.5648 64.6081 48.6573 64.9101 49.2754C65.256 49.9834 65.5568 51.1226 65.506 51.5328L65.4749 51.7843L65.2854 51.4321C65.1811 51.2385 65.0065 50.8157 64.8974 50.4926C64.6502 49.7611 64.1515 49.1886 63.5 48.8887C63.2183 48.759 62.5028 48.578 61.7617 48.4489C60.1661 48.171 59.96 48.1493 57.8786 48.0407C55.9406 47.9395 54.5783 47.7547 53.8701 47.4969C53.2849 47.284 52.9746 47.3372 52.89 47.6652C52.8387 47.8644 52.8828 47.9462 53.1735 48.1907C53.608 48.5562 54.6713 48.9584 55.6644 49.1329C56.0861 49.207 57.2657 49.3116 58.2858 49.3654C60.0797 49.46 60.4903 49.4983 62.0402 49.7157C62.4383 49.7715 62.8922 49.835 63.0489 49.8567C63.27 49.8874 63.3242 49.9318 63.2911 50.0553C63.2676 50.1427 63.3915 50.4685 63.5665 50.7792C64.095 51.7177 64.5288 53.5637 64.5267 54.8654C64.5252 55.8388 64.4908 55.9221 64.0186 56.0976C63.7971 56.1799 63.5518 56.3424 63.4735 56.4586C63.3436 56.6516 63.3442 56.6893 63.4799 56.8909C63.5617 57.0124 63.8533 57.257 64.128 57.4344C64.6201 57.7523 64.6298 57.7546 64.7978 57.5877C65.2274 57.1611 66.1221 55.0507 66.028 54.686C65.9955 54.56 66.0561 54.3874 66.2006 54.1944C66.5424 53.738 66.6242 53.5108 66.6985 52.8121C66.7362 52.4575 66.8105 52.125 66.8636 52.0734C66.9167 52.0218 67.1669 51.9602 67.4196 51.9365C67.6724 51.9129 67.9052 51.8526 67.9369 51.8026C68.0387 51.6425 67.6036 51.3881 67.2278 51.3881C66.5961 51.3881 66.2008 50.7263 65.9301 49.2159C65.691 47.8816 65.8199 46.1768 66.203 45.6079C66.5913 45.0312 67.5108 44.6844 67.7885 45.0099C67.8533 45.0859 67.9368 45.5476 67.9775 46.0551C68.1052 47.6474 68.2767 48.1142 69.0495 48.9736C69.474 49.4456 69.5039 49.5099 69.5039 49.9509C69.5039 50.2517 69.6206 50.7745 69.8256 51.3914C70.4286 53.2064 70.5526 54.1793 70.2317 54.5763C69.9615 54.9105 69.6884 55.9908 69.6022 57.0662L69.5247 58.0345L68.6488 59.7921C67.6436 61.8094 67.2239 62.4592 66.1759 63.6216C64.719 65.2374 64.3187 65.8572 64.3011 66.5236C64.2952 66.7448 64.2427 67.0114 64.1842 67.116C64.1258 67.2206 63.7009 67.5724 63.24 67.8977C62.7792 68.223 62.1578 68.7183 61.8593 68.9985C61.2325 69.5866 60.9324 69.6934 59.8689 69.7071C58.9436 69.7189 58.7141 69.7842 58.6128 70.0643C58.5019 70.3713 58.6167 70.7638 58.8337 70.819C59.2491 70.9247 59.1441 71.6156 58.5061 72.9746C58.2854 73.4448 58.1048 73.8843 58.1048 73.9512C58.1048 74.1864 57.7436 75.0907 57.3457 75.8515C56.744 77.002 56.4528 78.1987 56.6511 78.7061C56.7179 78.8771 56.7181 79.075 56.6518 79.3645C56.492 80.0629 56.1911 80.9669 56.1186 80.9669C56.0807 80.9669 55.8966 80.6073 55.7094 80.1678ZM57.5037 68.5903C58.7498 68.2761 59.5523 67.6908 59.5523 67.096C59.5523 66.5756 59.483 66.5874 57.5102 67.4437C57.1085 67.6181 56.5589 67.8011 56.2889 67.8504C55.8487 67.9308 55.5717 68.1072 55.5717 68.3071C55.5717 68.3462 55.6531 68.4575 55.7526 68.5544C55.981 68.7766 56.7057 68.7915 57.5037 68.5903ZM59.1885 62.9213C59.2804 62.8734 59.4248 62.6581 59.5093 62.4428C59.6869 61.9903 59.7917 61.9301 60.2024 62.0447C60.8611 62.2285 60.8502 62.4186 60.3678 59.1459C60.3165 58.7975 60.1966 58.4546 60.0517 58.2415C59.9234 58.0528 59.7933 57.7705 59.7627 57.6143C59.6867 57.2259 59.4167 56.7117 59.0111 56.1828C58.2348 55.1706 58.0992 54.5627 58.5908 54.2988C58.7459 54.2155 58.8918 54.0358 58.9527 53.8531C59.2305 53.0195 60.4053 53.313 60.9419 54.35C61.1852 54.8202 61.2126 55.289 61.0448 56.1117C60.5641 58.469 61.4433 60.7716 62.6973 60.4398C63.0604 60.3438 63.5384 59.7344 63.7695 59.0728C64.014 58.3729 63.8592 58.3159 63.2114 58.8675C62.9218 59.1141 62.5843 59.3405 62.4616 59.3704C61.7667 59.5401 61.5395 58.6098 61.9094 57.1102C62.011 56.6986 62.1182 56.0589 62.1477 55.6884C62.2333 54.6134 61.8712 51.9275 61.6204 51.7766C61.5713 51.7471 61.4609 51.785 61.3749 51.8607C61.1216 52.0837 60.3207 52.2069 59.5496 52.1415C58.6005 52.0609 58.0569 51.9093 57.3625 51.5314C56.6385 51.1374 56.1903 51.1056 55.9701 51.4327C55.746 51.7654 55.9267 52.0787 56.7808 52.8384L57.5125 53.4892L57.3009 53.9572C57.1845 54.2146 57.0484 54.5847 56.9984 54.7797C56.7964 55.5672 57.336 56.7889 57.9375 56.906C58.2727 56.9712 58.4816 57.3655 58.6887 58.3234C58.9642 59.598 58.9658 60.236 58.6959 61.2495C58.4051 62.3414 58.3848 62.7324 58.6106 62.893C58.8043 63.0308 58.9633 63.0386 59.1885 62.9213Z" fill="#F5D999"/>
<path fill-rule="evenodd" clip-rule="evenodd" d="M53.2163 106.505C47.6377 105.978 42.2463 105.133 40.337 104.487C39.0437 104.049 34.6497 103.009 33.5428 102.878C33.038 102.818 32.625 102.716 32.625 102.65C32.625 102.585 32.8027 101.594 33.0198 100.448C33.2369 99.3025 33.5576 97.4015 33.7324 96.2239C34.2667 92.6237 34.5036 92.4813 38.7046 93.2352C43.6845 94.1289 49.507 94.6828 58.4041 95.109C62.9956 95.329 75.8483 94.2894 81.6904 93.2255C84.2647 92.7567 84.9643 92.7488 85.5304 93.182C86.1223 93.6351 86.2032 93.8997 86.6606 96.8808C86.8804 98.3135 87.1969 100.212 87.3639 101.1C87.5308 101.988 87.6508 102.73 87.6304 102.751C87.61 102.771 87.0236 102.864 86.3272 102.957C85.0645 103.127 82.1263 103.832 79.5541 104.583C77.7181 105.118 74.7336 105.639 70.6152 106.142C67.5039 106.522 66.6019 106.565 60.958 106.605C57.5341 106.629 54.0504 106.584 53.2163 106.505ZM49.5219 104.9C50.3163 104.5 50.5632 103.508 50.0548 102.758C49.7903 102.367 49.7836 102.196 49.9667 100.505C50.0757 99.499 50.1691 98.4916 50.1742 98.2666C50.1805 97.9928 50.289 97.8307 50.5028 97.7763C50.7458 97.7145 50.822 97.5645 50.822 97.1481V96.6011L49.9042 96.5065C49.3994 96.4545 48.7888 96.3813 48.5474 96.3439C48.1321 96.2795 48.1084 96.3084 48.1084 96.8767C48.1084 97.2285 48.195 97.5098 48.3174 97.5555C48.4891 97.6197 48.4866 98.0163 48.3034 99.7855C48.1807 100.969 48.0627 101.955 48.041 101.976C48.0193 101.998 47.451 101.97 46.778 101.915L45.5545 101.814V101.35C45.5545 101.094 45.6395 100.091 45.7435 99.1201C45.9078 97.5862 45.9704 97.3554 46.2224 97.3554C46.4523 97.3554 46.5122 97.2316 46.5122 96.7562V96.1571L45.531 96.0573C43.8566 95.887 43.8415 95.8908 43.7684 96.5006C43.7205 96.8998 43.7706 97.0645 43.9579 97.1223C44.1869 97.193 44.1926 97.3847 44.0148 99.0256C43.9061 100.029 43.813 101.042 43.8079 101.277C43.8009 101.598 43.719 101.704 43.4794 101.704C43.0215 101.704 43.0147 102.718 43.4719 102.835C43.7486 102.905 43.7631 102.967 43.6007 103.386C43.3324 104.077 43.6349 104.656 44.265 104.656C44.5633 104.656 44.8242 104.536 44.9708 104.333L45.2033 104.009L46.2967 104.472C47.9603 105.177 48.761 105.283 49.5219 104.9ZM59.3447 103.789C59.5264 103.328 59.4497 102.792 59.2022 102.792C58.931 102.792 58.8889 101.798 59.0662 99.5811C59.1508 98.5234 59.2171 98.2994 59.4643 98.2365C59.681 98.1814 59.7609 98.0168 59.7609 97.6251V97.0891L58.4482 97.0016C57.7262 96.9534 57.0797 96.9476 57.0116 96.9885C56.9434 97.0295 56.8877 97.3036 56.8877 97.5975C56.8877 97.9691 56.9607 98.132 57.1271 98.132C57.3083 98.132 57.3665 98.3226 57.3665 98.9152V99.6983L56.1295 99.6529L54.8924 99.6076L54.8441 98.7922C54.8069 98.1629 54.8486 97.9767 55.0266 97.9767C55.2744 97.9767 55.4511 97.6563 55.4511 97.2068C55.4511 96.8743 54.877 96.7341 53.5156 96.7341H52.5779V97.27C52.5779 97.6025 52.676 97.8594 52.8364 97.9467C53.0646 98.071 53.0813 98.3454 52.9781 100.284C52.8698 102.319 52.8383 102.481 52.5503 102.481C52.2886 102.481 52.2472 102.573 52.2889 103.064L52.3384 103.646L53.6015 103.692C54.9366 103.74 55.1246 103.655 55.1294 103.003C55.1307 102.819 55.0241 102.629 54.8924 102.58C54.7234 102.517 54.6529 102.261 54.6529 101.709V100.928H55.9299H57.2069V101.764C57.2069 102.47 57.157 102.613 56.8877 102.681C56.6442 102.743 56.5684 102.893 56.5684 103.313V103.864L57.4863 103.92C57.9911 103.95 58.5939 103.989 58.826 104.005C59.0845 104.023 59.2854 103.939 59.3447 103.789ZM63.2127 103.879H64.0707V103.258C64.0707 102.794 64.0064 102.636 63.818 102.636C63.4494 102.636 63.5528 102.477 64.7888 101.141L65.9061 99.9341L66.007 100.392C66.0626 100.644 66.1165 101.217 66.1269 101.666C66.1415 102.295 66.0912 102.481 65.9064 102.481C65.7334 102.481 65.6669 102.654 65.6669 103.102V103.724H66.3629C66.7458 103.724 67.3886 103.68 67.7914 103.626C68.5118 103.53 68.5223 103.52 68.4253 103.043C68.3711 102.777 68.2305 102.489 68.1129 102.403C67.9668 102.297 67.8529 101.584 67.7535 100.151C67.6322 98.4028 67.6457 98.0257 67.8347 97.8819C67.9593 97.7871 68.0613 97.49 68.0613 97.2218V96.7341H66.7045H65.3477V97.3554C65.3477 97.8041 65.4142 97.9767 65.5871 97.9767C65.7188 97.9767 65.8265 98.0241 65.8265 98.082C65.8265 98.14 65.2878 98.726 64.6294 99.3844L63.4322 100.582V100.077C63.4322 99.8001 63.3865 99.249 63.3307 98.8526C63.2456 98.2488 63.2715 98.132 63.4903 98.132C63.6901 98.132 63.7514 97.9807 63.7514 97.4886V96.8452L62.7703 96.945C62.2307 96.9998 61.6201 97.0447 61.4135 97.0447C61.0836 97.0447 61.0379 97.1181 61.0379 97.6479C61.0379 98.1205 61.107 98.2687 61.3571 98.3323C61.6303 98.4018 61.6765 98.5446 61.6773 99.3212C61.6778 99.8204 61.7244 100.806 61.7808 101.51C61.8709 102.637 61.8516 102.792 61.6202 102.792C61.4183 102.792 61.3571 102.941 61.3571 103.432C61.3571 104.067 61.3617 104.072 61.8559 103.976C62.1303 103.923 62.7408 103.879 63.2127 103.879ZM73.284 103.195C73.4218 103.072 73.0858 102.015 72.9089 102.015C72.7887 102.015 72.6903 101.94 72.6903 101.848C72.6903 101.585 74.8109 99.3552 74.9338 99.4885C74.9943 99.554 75.0864 100.082 75.1386 100.663C75.2147 101.508 75.1869 101.736 74.9995 101.806C74.7575 101.896 74.6619 102.881 74.8851 102.984C74.951 103.015 75.6022 102.976 76.3323 102.899C77.4007 102.786 77.6421 102.714 77.5694 102.529C77.5196 102.403 77.479 102.139 77.479 101.943C77.479 101.726 77.3631 101.556 77.1845 101.51C76.9399 101.448 76.8711 101.215 76.7786 100.133C76.7174 99.417 76.6241 98.4291 76.5715 97.9379C76.4898 97.1753 76.5141 97.0447 76.738 97.0447C77.0276 97.0447 77.0427 96.9799 76.907 96.3197L76.8138 95.8664L75.7497 95.9816C75.1645 96.045 74.5599 96.1004 74.4063 96.1048C73.9311 96.1184 74.062 97.2102 74.5581 97.3709C74.6673 97.4063 74.2551 97.984 73.6004 98.7131L72.4509 99.9932L72.3452 99.2567C72.1608 97.973 72.1888 97.5107 72.4509 97.5107C72.7035 97.5107 72.7506 97.2018 72.588 96.6111C72.4986 96.2865 72.4247 96.2632 71.7521 96.3475C69.724 96.6015 69.8171 96.5666 69.8171 97.0729C69.8171 97.4092 69.9064 97.5625 70.1364 97.621C70.3119 97.6657 70.457 97.7465 70.4588 97.8006C70.4605 97.8547 70.5653 98.8415 70.6916 99.9933C70.8925 101.826 70.8921 102.103 70.6884 102.214C70.5522 102.289 70.4556 102.571 70.4556 102.895V103.45L71.8523 103.338C72.6205 103.276 73.2648 103.212 73.284 103.195Z" fill="#F5D999"/>
</g>
<defs>
<clipPath id="clip0_19_411">
<rect width="120" height="120" fill="white"/>
</clipPath>
</defs>
</svg>
