<svg width="40" height="40" viewBox="0 0 40 40" fill="none" xmlns="http://www.w3.org/2000/svg">
<path d="M19.9993 19.9998C18.166 19.9998 16.5966 19.3471 15.291 18.0415C13.9855 16.7359 13.3327 15.1665 13.3327 13.3332C13.3327 11.4998 13.9855 9.93039 15.291 8.62484C16.5966 7.31928 18.166 6.6665 19.9993 6.6665C21.8327 6.6665 23.4021 7.31928 24.7077 8.62484C26.0132 9.93039 26.666 11.4998 26.666 13.3332C26.666 15.1665 26.0132 16.7359 24.7077 18.0415C23.4021 19.3471 21.8327 19.9998 19.9993 19.9998ZM6.66602 33.3332V28.6665C6.66602 27.7221 6.90907 26.854 7.39518 26.0623C7.88129 25.2707 8.52713 24.6665 9.33268 24.2498C11.0549 23.3887 12.8049 22.7429 14.5827 22.3123C16.3605 21.8818 18.166 21.6665 19.9993 21.6665C21.8327 21.6665 23.6382 21.8818 25.416 22.3123C27.1938 22.7429 28.9438 23.3887 30.666 24.2498C31.4716 24.6665 32.1174 25.2707 32.6035 26.0623C33.0896 26.854 33.3327 27.7221 33.3327 28.6665V33.3332H6.66602ZM9.99935 29.9998H29.9993V28.6665C29.9993 28.3609 29.923 28.0832 29.7702 27.8332C29.6174 27.5832 29.416 27.3887 29.166 27.2498C27.666 26.4998 26.1521 25.9373 24.6243 25.5623C23.0966 25.1873 21.5549 24.9998 19.9993 24.9998C18.4438 24.9998 16.9021 25.1873 15.3743 25.5623C13.8466 25.9373 12.3327 26.4998 10.8327 27.2498C10.5827 27.3887 10.3813 27.5832 10.2285 27.8332C10.0757 28.0832 9.99935 28.3609 9.99935 28.6665V29.9998ZM19.9993 16.6665C20.916 16.6665 21.7007 16.3401 22.3535 15.6873C23.0063 15.0346 23.3327 14.2498 23.3327 13.3332C23.3327 12.4165 23.0063 11.6318 22.3535 10.979C21.7007 10.3262 20.916 9.99984 19.9993 9.99984C19.0827 9.99984 18.298 10.3262 17.6452 10.979C16.9924 11.6318 16.666 12.4165 16.666 13.3332C16.666 14.2498 16.9924 15.0346 17.6452 15.6873C18.298 16.3401 19.0827 16.6665 19.9993 16.6665Z" fill="#1D1B20"/>
</svg>
