<svg width="130" height="130" viewBox="0 0 130 130" fill="none" xmlns="http://www.w3.org/2000/svg">
<path d="M21.6667 83.2501C23.5582 83.2501 24.7876 81.765 25.4968 80.5651C26.2852 79.2312 26.9258 77.4343 27.4371 75.3891C28.4674 71.268 29.0833 65.6808 29.0833 59.5834C29.0833 53.4861 28.4674 47.8988 27.4371 43.7777C26.9258 41.7325 26.2852 39.9356 25.4968 38.6018C24.7876 37.4018 23.5582 35.9167 21.6667 35.9167C19.7751 35.9167 18.5458 37.4018 17.8365 38.6018C17.0481 39.9356 16.4075 41.7325 15.8962 43.7777C14.8659 47.8988 14.25 53.4861 14.25 59.5834C14.25 65.6808 14.8659 71.268 15.8962 75.3891C16.4075 77.4343 17.0481 79.2312 17.8365 80.5651C18.5458 81.765 19.7751 83.2501 21.6667 83.2501Z" stroke="#222222" stroke-width="4"/>
<path d="M108.334 83.2501C110.172 83.2501 111.395 81.8338 112.119 80.6343C112.916 79.3133 113.574 77.5107 114.104 75.3891C115.171 71.1208 115.75 65.4374 115.75 59.5834C115.75 53.7295 115.171 48.046 114.104 43.7777C113.574 41.6561 112.916 39.8535 112.119 38.5326C111.395 37.3331 110.172 35.9167 108.334 35.9167" stroke="#222222" stroke-width="4" stroke-linecap="round"/>
<path d="M108.334 35.2083C108.334 35.2083 89.3753 40.6249 65.0003 40.6249C40.6253 40.6249 21.667 35.2083 21.667 35.2083" stroke="#222222" stroke-width="4" stroke-linecap="round"/>
<path d="M21.6663 83.9583C21.6663 83.9583 35.2318 80.0824 54.1663 78.8878M108.333 83.9583C108.333 83.9583 94.7675 80.0824 75.833 78.8878" stroke="#222222" stroke-width="4" stroke-linecap="round"/>
<path d="M56.875 40.625V59.5833M73.125 40.625V59.5833" stroke="#222222" stroke-width="4" stroke-linecap="round"/>
<circle cx="65.0003" cy="70.4166" r="12.8333" stroke="#222222" stroke-width="4"/>
<path d="M54.1667 78.5417L40.625 89.3751L48.75 92.0834L54.1667 100.208L65 83.9584L75.8333 100.208L81.25 92.0834L89.375 89.3751L75.8333 78.5417" stroke="#222222" stroke-width="4" stroke-linecap="round" stroke-linejoin="round"/>
</svg>
